<?xml version="1.0" encoding="UTF-8"?>
<svg version="1.1" xmlns="http://www.w3.org/2000/svg" width="1851" height="1407">
<path d="M0 0 C1.98 0 3.96 0 6 0 C6 0.99 6 1.98 6 3 C6.66 3 7.32 3 8 3 C8 4.32 8 5.64 8 7 C8.66 7 9.32 7 10 7 C14 13.625 14 13.625 14 17 C14.66 17 15.32 17 16 17 C16 18.32 16 19.64 16 21 C16.66 21 17.32 21 18 21 C22 27.625 22 27.625 22 31 C22.66 31 23.32 31 24 31 C25.0076952 32.7664657 26.00591714 34.53833823 27 36.3125 C27.556875 37.29863281 28.11375 38.28476563 28.6875 39.30078125 C30 42 30 42 30 45 C30.66 45 31.32 45 32 45 C32.67154933 46.28913487 33.33708859 47.58140204 34 48.875 C34.37125 49.59429687 34.7425 50.31359375 35.125 51.0546875 C36 53 36 53 36 55 C36.66 55 37.32 55 38 55 C38 56.32 38 57.64 38 59 C38.66 59 39.32 59 40 59 C44 65.625 44 65.625 44 69 C44.66 69 45.32 69 46 69 C46.81752303 70.58074564 47.62881997 72.16471223 48.4375 73.75 C48.88996094 74.63171875 49.34242188 75.5134375 49.80859375 76.421875 C50.83455398 78.64198566 51.51508603 80.61444619 52 83 C52.66 83 53.32 83 54 83 C55.0076952 84.7664657 56.00591714 86.53833823 57 88.3125 C57.8353125 89.79169922 57.8353125 89.79169922 58.6875 91.30078125 C60 94 60 94 60 97 C60.66 97 61.32 97 62 97 C66 103.625 66 103.625 66 107 C66.66 107 67.32 107 68 107 C68 108.32 68 109.64 68 111 C68.66 111 69.32 111 70 111 C74 117.625 74 117.625 74 121 C74.66 121 75.32 121 76 121 C76.81752303 122.58074564 77.62881997 124.16471223 78.4375 125.75 C78.88996094 126.63171875 79.34242188 127.5134375 79.80859375 128.421875 C80.83455398 130.64198566 81.51508603 132.61444619 82 135 C82.66 135 83.32 135 84 135 C85.0076952 136.7664657 86.00591714 138.53833823 87 140.3125 C87.8353125 141.79169922 87.8353125 141.79169922 88.6875 143.30078125 C90 146 90 146 90 149 C90.66 149 91.32 149 92 149 C96 155.625 96 155.625 96 159 C96.66 159 97.32 159 98 159 C98 160.32 98 161.64 98 163 C98.66 163 99.32 163 100 163 C104 169.625 104 169.625 104 173 C104.66 173 105.32 173 106 173 C106.81752303 174.58074564 107.62881997 176.16471223 108.4375 177.75 C108.88996094 178.63171875 109.34242188 179.5134375 109.80859375 180.421875 C110.83455398 182.64198566 111.51508603 184.61444619 112 187 C112.66 187 113.32 187 114 187 C115.0076952 188.7664657 116.00591714 190.53833823 117 192.3125 C117.8353125 193.79169922 117.8353125 193.79169922 118.6875 195.30078125 C120 198 120 198 120 201 C120.66 201 121.32 201 122 201 C126 207.625 126 207.625 126 211 C126.66 211 127.32 211 128 211 C128 212.32 128 213.64 128 215 C128.66 215 129.32 215 130 215 C134 221.625 134 221.625 134 225 C134.66 225 135.32 225 136 225 C136.81752303 226.58074564 137.62881997 228.16471223 138.4375 229.75 C138.88996094 230.63171875 139.34242188 231.5134375 139.80859375 232.421875 C140.83455398 234.64198566 141.51508603 236.61444619 142 239 C142.66 239 143.32 239 144 239 C145.0076952 240.7664657 146.00591714 242.53833823 147 244.3125 C147.8353125 245.79169922 147.8353125 245.79169922 148.6875 247.30078125 C150 250 150 250 150 253 C150.66 253 151.32 253 152 253 C156 259.625 156 259.625 156 263 C156.66 263 157.32 263 158 263 C158 264.32 158 265.64 158 267 C158.66 267 159.32 267 160 267 C164 273.625 164 273.625 164 277 C164.66 277 165.32 277 166 277 C166.81752303 278.58074564 167.62881997 280.16471223 168.4375 281.75 C168.88996094 282.63171875 169.34242188 283.5134375 169.80859375 284.421875 C170.83455398 286.64198566 171.51508603 288.61444619 172 291 C172.66 291 173.32 291 174 291 C175.0076952 292.7664657 176.00591714 294.53833823 177 296.3125 C177.8353125 297.79169922 177.8353125 297.79169922 178.6875 299.30078125 C180 302 180 302 180 305 C180.66 305 181.32 305 182 305 C186 311.625 186 311.625 186 315 C186.66 315 187.32 315 188 315 C188 316.32 188 317.64 188 319 C188.66 319 189.32 319 190 319 C194 325.625 194 325.625 194 329 C194.66 329 195.32 329 196 329 C196.81752303 330.58074564 197.62881997 332.16471223 198.4375 333.75 C198.88996094 334.63171875 199.34242188 335.5134375 199.80859375 336.421875 C200.83455398 338.64198566 201.51508603 340.61444619 202 343 C202.66 343 203.32 343 204 343 C205.0076952 344.7664657 206.00591714 346.53833823 207 348.3125 C207.8353125 349.79169922 207.8353125 349.79169922 208.6875 351.30078125 C210 354 210 354 210 357 C210.66 357 211.32 357 212 357 C216 363.625 216 363.625 216 367 C216.66 367 217.32 367 218 367 C218 368.32 218 369.64 218 371 C218.66 371 219.32 371 220 371 C224 377.625 224 377.625 224 381 C224.66 381 225.32 381 226 381 C226.81752303 382.58074564 227.62881997 384.16471223 228.4375 385.75 C228.88996094 386.63171875 229.34242188 387.5134375 229.80859375 388.421875 C230.83455398 390.64198566 231.51508603 392.61444619 232 395 C232.66 395 233.32 395 234 395 C235.0076952 396.7664657 236.00591714 398.53833823 237 400.3125 C237.8353125 401.79169922 237.8353125 401.79169922 238.6875 403.30078125 C240 406 240 406 240 409 C240.66 409 241.32 409 242 409 C246 415.625 246 415.625 246 419 C246.66 419 247.32 419 248 419 C248 420.32 248 421.64 248 423 C248.66 423 249.32 423 250 423 C254 429.625 254 429.625 254 433 C254.66 433 255.32 433 256 433 C257.0076952 434.7664657 258.00591714 436.53833823 259 438.3125 C259.8353125 439.79169922 259.8353125 439.79169922 260.6875 441.30078125 C262 444 262 444 262 447 C262.66 447 263.32 447 264 447 C265.0076952 448.7664657 266.00591714 450.53833823 267 452.3125 C267.8353125 453.79169922 267.8353125 453.79169922 268.6875 455.30078125 C270 458 270 458 270 461 C270.66 461 271.32 461 272 461 C276 467.625 276 467.625 276 471 C276.66 471 277.32 471 278 471 C278 472.32 278 473.64 278 475 C278.66 475 279.32 475 280 475 C284 481.625 284 481.625 284 485 C284.66 485 285.32 485 286 485 C287.0076952 486.7664657 288.00591714 488.53833823 289 490.3125 C289.8353125 491.79169922 289.8353125 491.79169922 290.6875 493.30078125 C292 496 292 496 292 499 C292.66 499 293.32 499 294 499 C294.67154933 500.28913487 295.33708859 501.58140204 296 502.875 C296.37125 503.59429688 296.7425 504.31359375 297.125 505.0546875 C298 507 298 507 298 509 C298.66 509 299.32 509 300 509 C300 510.32 300 511.64 300 513 C300.66 513 301.32 513 302 513 C306 519.625 306 519.625 306 523 C306.66 523 307.32 523 308 523 C308 524.32 308 525.64 308 527 C308.66 527 309.32 527 310 527 C314 533.625 314 533.625 314 537 C314.66 537 315.32 537 316 537 C317.0076952 538.7664657 318.00591714 540.53833823 319 542.3125 C319.556875 543.29863281 320.11375 544.28476562 320.6875 545.30078125 C322 548 322 548 322 551 C322.66 551 323.32 551 324 551 C324.67154933 552.28913487 325.33708859 553.58140204 326 554.875 C326.37125 555.59429688 326.7425 556.31359375 327.125 557.0546875 C328 559 328 559 328 561 C328.66 561 329.32 561 330 561 C330 562.32 330 563.64 330 565 C330.66 565 331.32 565 332 565 C336 571.625 336 571.625 336 575 C336.66 575 337.32 575 338 575 C338 576.32 338 577.64 338 579 C338.66 579 339.32 579 340 579 C344 585.625 344 585.625 344 589 C344.66 589 345.32 589 346 589 C347.0076952 590.7664657 348.00591714 592.53833823 349 594.3125 C349.556875 595.29863281 350.11375 596.28476562 350.6875 597.30078125 C352 600 352 600 352 603 C352.66 603 353.32 603 354 603 C354.67154933 604.28913487 355.33708859 605.58140204 356 606.875 C356.37125 607.59429688 356.7425 608.31359375 357.125 609.0546875 C358 611 358 611 358 613 C358.66 613 359.32 613 360 613 C360 614.32 360 615.64 360 617 C360.66 617 361.32 617 362 617 C366 623.625 366 623.625 366 627 C366.66 627 367.32 627 368 627 C368 628.32 368 629.64 368 631 C368.66 631 369.32 631 370 631 C374 637.625 374 637.625 374 641 C374.66 641 375.32 641 376 641 C377.0076952 642.7664657 378.00591714 644.53833823 379 646.3125 C379.556875 647.29863281 380.11375 648.28476562 380.6875 649.30078125 C382 652 382 652 382 655 C382.66 655 383.32 655 384 655 C384.67154933 656.28913487 385.33708859 657.58140204 386 658.875 C386.37125 659.59429688 386.7425 660.31359375 387.125 661.0546875 C388 663 388 663 388 665 C388.66 665 389.32 665 390 665 C390 666.32 390 667.64 390 669 C390.66 669 391.32 669 392 669 C396 675.625 396 675.625 396 679 C396.66 679 397.32 679 398 679 C398.81752303 680.58074564 399.62881997 682.16471223 400.4375 683.75 C400.88996094 684.63171875 401.34242187 685.5134375 401.80859375 686.421875 C402.83455398 688.64198566 403.51508603 690.61444619 404 693 C404.66 693 405.32 693 406 693 C407.0076952 694.7664657 408.00591714 696.53833823 409 698.3125 C409.556875 699.29863281 410.11375 700.28476562 410.6875 701.30078125 C412 704 412 704 412 707 C412.66 707 413.32 707 414 707 C418 713.625 418 713.625 418 717 C418.66 717 419.32 717 420 717 C420 718.32 420 719.64 420 721 C420.66 721 421.32 721 422 721 C426 727.625 426 727.625 426 731 C426.66 731 427.32 731 428 731 C428.81752303 732.58074564 429.62881997 734.16471223 430.4375 735.75 C430.88996094 736.63171875 431.34242187 737.5134375 431.80859375 738.421875 C432.83455398 740.64198566 433.51508603 742.61444619 434 745 C434.66 745 435.32 745 436 745 C437.0076952 746.7664657 438.00591714 748.53833823 439 750.3125 C439.556875 751.29863281 440.11375 752.28476562 440.6875 753.30078125 C442 756 442 756 442 759 C442.66 759 443.32 759 444 759 C448 765.625 448 765.625 448 769 C448.66 769 449.32 769 450 769 C450 770.32 450 771.64 450 773 C450.66 773 451.32 773 452 773 C456 779.625 456 779.625 456 783 C456.66 783 457.32 783 458 783 C458.81752303 784.58074564 459.62881997 786.16471223 460.4375 787.75 C460.88996094 788.63171875 461.34242187 789.5134375 461.80859375 790.421875 C462.83455398 792.64198566 463.51508603 794.61444619 464 797 C464.66 797 465.32 797 466 797 C467.0076952 798.7664657 468.00591714 800.53833823 469 802.3125 C469.556875 803.29863281 470.11375 804.28476562 470.6875 805.30078125 C472 808 472 808 472 811 C472.66 811 473.32 811 474 811 C478 817.625 478 817.625 478 821 C478.66 821 479.32 821 480 821 C480 822.32 480 823.64 480 825 C480.66 825 481.32 825 482 825 C486 831.625 486 831.625 486 835 C486.66 835 487.32 835 488 835 C488.81752303 836.58074564 489.62881997 838.16471223 490.4375 839.75 C490.88996094 840.63171875 491.34242187 841.5134375 491.80859375 842.421875 C492.83455398 844.64198566 493.51508603 846.61444619 494 849 C494.66 849 495.32 849 496 849 C497.0076952 850.7664657 498.00591714 852.53833823 499 854.3125 C499.556875 855.29863281 500.11375 856.28476562 500.6875 857.30078125 C502 860 502 860 502 863 C502.66 863 503.32 863 504 863 C508 869.625 508 869.625 508 873 C508.66 873 509.32 873 510 873 C510 874.32 510 875.64 510 877 C510.66 877 511.32 877 512 877 C516 883.625 516 883.625 516 887 C516.66 887 517.32 887 518 887 C518.81752303 888.58074564 519.62881997 890.16471223 520.4375 891.75 C520.88996094 892.63171875 521.34242187 893.5134375 521.80859375 894.421875 C522.83455398 896.64198566 523.51508603 898.61444619 524 901 C524.66 901 525.32 901 526 901 C527.0076952 902.7664657 528.00591714 904.53833823 529 906.3125 C529.556875 907.29863281 530.11375 908.28476563 530.6875 909.30078125 C532 912 532 912 532 915 C532.66 915 533.32 915 534 915 C538 921.625 538 921.625 538 925 C538.66 925 539.32 925 540 925 C540 926.32 540 927.64 540 929 C540.66 929 541.32 929 542 929 C546 935.625 546 935.625 546 939 C546.66 939 547.32 939 548 939 C548.81752303 940.58074564 549.62881997 942.16471223 550.4375 943.75 C550.88996094 944.63171875 551.34242187 945.5134375 551.80859375 946.421875 C552.83455398 948.64198566 553.51508603 950.61444619 554 953 C554.66 953 555.32 953 556 953 C557.0076952 954.7664657 558.00591714 956.53833823 559 958.3125 C559.556875 959.29863281 560.11375 960.28476563 560.6875 961.30078125 C562 964 562 964 562 967 C562.66 967 563.32 967 564 967 C568 973.625 568 973.625 568 977 C568.66 977 569.32 977 570 977 C570 978.32 570 979.64 570 981 C570.66 981 571.32 981 572 981 C576 987.625 576 987.625 576 991 C576.66 991 577.32 991 578 991 C578.81752303 992.58074564 579.62881997 994.16471223 580.4375 995.75 C580.88996094 996.63171875 581.34242187 997.5134375 581.80859375 998.421875 C582.83455398 1000.64198566 583.51508603 1002.61444619 584 1005 C584.66 1005 585.32 1005 586 1005 C587.0076952 1006.7664657 588.00591714 1008.53833823 589 1010.3125 C589.556875 1011.29863281 590.11375 1012.28476563 590.6875 1013.30078125 C592 1016 592 1016 592 1019 C592.66 1019 593.32 1019 594 1019 C598 1025.625 598 1025.625 598 1029 C598.66 1029 599.32 1029 600 1029 C600 1030.32 600 1031.64 600 1033 C600.66 1033 601.32 1033 602 1033 C606 1039.625 606 1039.625 606 1043 C606.66 1043 607.32 1043 608 1043 C609.0076952 1044.7664657 610.00591714 1046.53833823 611 1048.3125 C611.8353125 1049.79169922 611.8353125 1049.79169922 612.6875 1051.30078125 C614 1054 614 1054 614 1057 C614.66 1057 615.32 1057 616 1057 C617.0076952 1058.7664657 618.00591714 1060.53833823 619 1062.3125 C619.8353125 1063.79169922 619.8353125 1063.79169922 620.6875 1065.30078125 C622 1068 622 1068 622 1071 C622.66 1071 623.32 1071 624 1071 C628 1077.625 628 1077.625 628 1081 C628.66 1081 629.32 1081 630 1081 C630 1082.32 630 1083.64 630 1085 C630.66 1085 631.32 1085 632 1085 C636 1091.625 636 1091.625 636 1095 C636.66 1095 637.32 1095 638 1095 C639.0076952 1096.7664657 640.00591714 1098.53833823 641 1100.3125 C641.8353125 1101.79169922 641.8353125 1101.79169922 642.6875 1103.30078125 C644 1106 644 1106 644 1109 C644.66 1109 645.32 1109 646 1109 C646.67154933 1110.28913487 647.33708859 1111.58140204 648 1112.875 C648.37125 1113.59429688 648.7425 1114.31359375 649.125 1115.0546875 C650 1117 650 1117 650 1119 C650.66 1119 651.32 1119 652 1119 C652 1120.32 652 1121.64 652 1123 C652.66 1123 653.32 1123 654 1123 C658 1129.625 658 1129.625 658 1133 C658.66 1133 659.32 1133 660 1133 C660 1134.32 660 1135.64 660 1137 C660.66 1137 661.32 1137 662 1137 C662.84941176 1138.36512604 663.67883188 1139.74270033 664.5 1141.125 C664.9640625 1141.89070313 665.428125 1142.65640625 665.90625 1143.4453125 C667 1146 667 1146 667 1152 C228.76 1152 -209.48 1152 -661 1152 C-661 1149.36 -661 1146.72 -661 1144 C-660.01 1143.67 -659.02 1143.34 -658 1143 C-657.60955794 1141.68225804 -657.29044914 1140.34332728 -657 1139 C-656.03112419 1136.98473831 -655.0358679 1134.98166034 -654 1133 C-653.34 1133 -652.68 1133 -652 1133 C-651.83177734 1132.17242188 -651.83177734 1132.17242188 -651.66015625 1131.328125 C-650.88639227 1128.59934789 -649.73182306 1126.27227057 -648.4375 1123.75 C-647.75494141 1122.41195313 -647.75494141 1122.41195313 -647.05859375 1121.046875 C-646.70925781 1120.37140625 -646.35992188 1119.6959375 -646 1119 C-645.34 1119 -644.68 1119 -644 1119 C-643.896875 1118.46375 -643.79375 1117.9275 -643.6875 1117.375 C-642.81907303 1114.37497956 -641.44379704 1111.7620465 -640 1109 C-639.34 1109 -638.68 1109 -638 1109 C-638 1107.68 -638 1106.36 -638 1105 C-637.34 1105 -636.68 1105 -636 1105 C-635.896875 1104.46375 -635.79375 1103.9275 -635.6875 1103.375 C-634.81907303 1100.37497956 -633.44379704 1097.7620465 -632 1095 C-631.34 1095 -630.68 1095 -630 1095 C-629.83177734 1094.17242188 -629.83177734 1094.17242188 -629.66015625 1093.328125 C-628.88639227 1090.59934789 -627.73182306 1088.27227057 -626.4375 1085.75 C-625.75494141 1084.41195313 -625.75494141 1084.41195313 -625.05859375 1083.046875 C-624.70925781 1082.37140625 -624.35992188 1081.6959375 -624 1081 C-623.34 1081 -622.68 1081 -622 1081 C-621.83177734 1080.17242188 -621.83177734 1080.17242188 -621.66015625 1079.328125 C-620.88639227 1076.59934789 -619.73182306 1074.27227057 -618.4375 1071.75 C-617.75494141 1070.41195313 -617.75494141 1070.41195313 -617.05859375 1069.046875 C-616.70925781 1068.37140625 -616.35992188 1067.6959375 -616 1067 C-615.34 1067 -614.68 1067 -614 1067 C-613.896875 1066.46375 -613.79375 1065.9275 -613.6875 1065.375 C-612.81907303 1062.37497956 -611.44379704 1059.7620465 -610 1057 C-609.34 1057 -608.68 1057 -608 1057 C-608 1055.68 -608 1054.36 -608 1053 C-607.34 1053 -606.68 1053 -606 1053 C-605.896875 1052.46375 -605.79375 1051.9275 -605.6875 1051.375 C-604.81907303 1048.37497956 -603.44379704 1045.7620465 -602 1043 C-601.34 1043 -600.68 1043 -600 1043 C-599.83177734 1042.17242188 -599.83177734 1042.17242188 -599.66015625 1041.328125 C-598.88639227 1038.59934789 -597.73182306 1036.27227057 -596.4375 1033.75 C-595.98246094 1032.85796875 -595.52742188 1031.9659375 -595.05859375 1031.046875 C-594.70925781 1030.37140625 -594.35992188 1029.6959375 -594 1029 C-593.34 1029 -592.68 1029 -592 1029 C-591.896875 1028.46375 -591.79375 1027.9275 -591.6875 1027.375 C-590.81907303 1024.37497956 -589.44379704 1021.7620465 -588 1019 C-587.34 1019 -586.68 1019 -586 1019 C-586 1017.68 -586 1016.36 -586 1015 C-585.34 1015 -584.68 1015 -584 1015 C-583.896875 1014.46375 -583.79375 1013.9275 -583.6875 1013.375 C-582.81907303 1010.37497956 -581.44379704 1007.7620465 -580 1005 C-579.34 1005 -578.68 1005 -578 1005 C-578 1003.68 -578 1002.36 -578 1001 C-577.34 1001 -576.68 1001 -576 1001 C-575.71125 1000.0925 -575.4225 999.185 -575.125 998.25 C-574.23468224 995.67797092 -573.28505587 993.38653234 -572 991 C-571.34 991 -570.68 991 -570 991 C-569.88785156 990.44828125 -569.77570313 989.8965625 -569.66015625 989.328125 C-568.88639227 986.59934789 -567.73182306 984.27227057 -566.4375 981.75 C-565.98246094 980.85796875 -565.52742188 979.9659375 -565.05859375 979.046875 C-564.70925781 978.37140625 -564.35992188 977.6959375 -564 977 C-563.34 977 -562.68 977 -562 977 C-561.896875 976.46375 -561.79375 975.9275 -561.6875 975.375 C-560.81907303 972.37497956 -559.44379704 969.7620465 -558 967 C-557.34 967 -556.68 967 -556 967 C-556 965.68 -556 964.36 -556 963 C-555.34 963 -554.68 963 -554 963 C-553.896875 962.46375 -553.79375 961.9275 -553.6875 961.375 C-552.81907303 958.37497956 -551.44379704 955.7620465 -550 953 C-549.34 953 -548.68 953 -548 953 C-547.88785156 952.44828125 -547.77570313 951.8965625 -547.66015625 951.328125 C-546.88639227 948.59934789 -545.73182306 946.27227057 -544.4375 943.75 C-543.98246094 942.85796875 -543.52742188 941.9659375 -543.05859375 941.046875 C-542.70925781 940.37140625 -542.35992188 939.6959375 -542 939 C-541.34 939 -540.68 939 -540 939 C-539.88785156 938.44828125 -539.77570313 937.8965625 -539.66015625 937.328125 C-538.88639227 934.59934789 -537.73182306 932.27227057 -536.4375 929.75 C-535.98246094 928.85796875 -535.52742188 927.9659375 -535.05859375 927.046875 C-534.70925781 926.37140625 -534.35992188 925.6959375 -534 925 C-533.34 925 -532.68 925 -532 925 C-531.8453125 924.195625 -531.8453125 924.195625 -531.6875 923.375 C-530.81907303 920.37497956 -529.44379704 917.7620465 -528 915 C-527.34 915 -526.68 915 -526 915 C-526 913.68 -526 912.36 -526 911 C-525.34 911 -524.68 911 -524 911 C-523.71125 910.0925 -523.4225 909.185 -523.125 908.25 C-522.23468224 905.67797092 -521.28505587 903.38653234 -520 901 C-519.34 901 -518.68 901 -518 901 C-517.88785156 900.44828125 -517.77570313 899.8965625 -517.66015625 899.328125 C-516.88639227 896.59934789 -515.73182306 894.27227057 -514.4375 891.75 C-513.98246094 890.85796875 -513.52742187 889.9659375 -513.05859375 889.046875 C-512.70925781 888.37140625 -512.35992188 887.6959375 -512 887 C-511.34 887 -510.68 887 -510 887 C-509.8453125 886.195625 -509.8453125 886.195625 -509.6875 885.375 C-508.81907303 882.37497956 -507.44379704 879.7620465 -506 877 C-505.34 877 -504.68 877 -504 877 C-504 875.68 -504 874.36 -504 873 C-503.34 873 -502.68 873 -502 873 C-501.8453125 872.195625 -501.8453125 872.195625 -501.6875 871.375 C-500.81907303 868.37497956 -499.44379704 865.7620465 -498 863 C-497.34 863 -496.68 863 -496 863 C-495.88785156 862.44828125 -495.77570313 861.8965625 -495.66015625 861.328125 C-494.88639227 858.59934789 -493.73182306 856.27227057 -492.4375 853.75 C-491.98246094 852.85796875 -491.52742187 851.9659375 -491.05859375 851.046875 C-490.70925781 850.37140625 -490.35992187 849.6959375 -490 849 C-489.34 849 -488.68 849 -488 849 C-487.88785156 848.44828125 -487.77570313 847.8965625 -487.66015625 847.328125 C-486.88639227 844.59934789 -485.73182306 842.27227057 -484.4375 839.75 C-483.98246094 838.85796875 -483.52742187 837.9659375 -483.05859375 837.046875 C-482.70925781 836.37140625 -482.35992187 835.6959375 -482 835 C-481.34 835 -480.68 835 -480 835 C-479.8453125 834.195625 -479.8453125 834.195625 -479.6875 833.375 C-478.81907303 830.37497956 -477.44379704 827.7620465 -476 825 C-475.34 825 -474.68 825 -474 825 C-474 823.68 -474 822.36 -474 821 C-473.34 821 -472.68 821 -472 821 C-471.8453125 820.195625 -471.8453125 820.195625 -471.6875 819.375 C-470.81907303 816.37497956 -469.44379704 813.7620465 -468 811 C-467.34 811 -466.68 811 -466 811 C-465.88785156 810.44828125 -465.77570313 809.8965625 -465.66015625 809.328125 C-464.88639227 806.59934789 -463.73182306 804.27227057 -462.4375 801.75 C-461.98246094 800.85796875 -461.52742187 799.9659375 -461.05859375 799.046875 C-460.70925781 798.37140625 -460.35992187 797.6959375 -460 797 C-459.34 797 -458.68 797 -458 797 C-457.8453125 796.195625 -457.8453125 796.195625 -457.6875 795.375 C-456.81907303 792.37497956 -455.44379704 789.7620465 -454 787 C-453.34 787 -452.68 787 -452 787 C-452 785.68 -452 784.36 -452 783 C-451.34 783 -450.68 783 -450 783 C-449.8453125 782.195625 -449.8453125 782.195625 -449.6875 781.375 C-448.81907303 778.37497956 -447.44379704 775.7620465 -446 773 C-445.34 773 -444.68 773 -444 773 C-443.88785156 772.44828125 -443.77570313 771.8965625 -443.66015625 771.328125 C-442.88639227 768.59934789 -441.73182306 766.27227057 -440.4375 763.75 C-439.98246094 762.85796875 -439.52742187 761.9659375 -439.05859375 761.046875 C-438.70925781 760.37140625 -438.35992187 759.6959375 -438 759 C-437.34 759 -436.68 759 -436 759 C-435.88785156 758.44828125 -435.77570313 757.8965625 -435.66015625 757.328125 C-434.88639227 754.59934789 -433.73182306 752.27227057 -432.4375 749.75 C-431.98246094 748.85796875 -431.52742187 747.9659375 -431.05859375 747.046875 C-430.70925781 746.37140625 -430.35992187 745.6959375 -430 745 C-429.34 745 -428.68 745 -428 745 C-427.8453125 744.195625 -427.8453125 744.195625 -427.6875 743.375 C-426.81907303 740.37497956 -425.44379704 737.7620465 -424 735 C-423.34 735 -422.68 735 -422 735 C-422 733.68 -422 732.36 -422 731 C-421.34 731 -420.68 731 -420 731 C-419.8453125 730.195625 -419.8453125 730.195625 -419.6875 729.375 C-418.81907303 726.37497956 -417.44379704 723.7620465 -416 721 C-415.34 721 -414.68 721 -414 721 C-413.88785156 720.44828125 -413.77570313 719.8965625 -413.66015625 719.328125 C-412.88639227 716.59934789 -411.73182306 714.27227057 -410.4375 711.75 C-409.98246094 710.85796875 -409.52742187 709.9659375 -409.05859375 709.046875 C-408.70925781 708.37140625 -408.35992188 707.6959375 -408 707 C-407.34 707 -406.68 707 -406 707 C-405.8453125 706.195625 -405.8453125 706.195625 -405.6875 705.375 C-404.81907303 702.37497956 -403.44379704 699.7620465 -402 697 C-401.34 697 -400.68 697 -400 697 C-400 695.68 -400 694.36 -400 693 C-399.34 693 -398.68 693 -398 693 C-397.896875 692.46375 -397.79375 691.9275 -397.6875 691.375 C-396.81907303 688.37497956 -395.44379704 685.7620465 -394 683 C-393.34 683 -392.68 683 -392 683 C-392 681.68 -392 680.36 -392 679 C-391.34 679 -390.68 679 -390 679 C-389.71125 678.0925 -389.4225 677.185 -389.125 676.25 C-388.23468224 673.67797092 -387.28505587 671.38653234 -386 669 C-385.34 669 -384.68 669 -384 669 C-383.88785156 668.44828125 -383.77570313 667.8965625 -383.66015625 667.328125 C-382.88639227 664.59934789 -381.73182306 662.27227057 -380.4375 659.75 C-379.98246094 658.85796875 -379.52742188 657.9659375 -379.05859375 657.046875 C-378.70925781 656.37140625 -378.35992188 655.6959375 -378 655 C-377.34 655 -376.68 655 -376 655 C-375.896875 654.46375 -375.79375 653.9275 -375.6875 653.375 C-374.81907303 650.37497956 -373.44379704 647.7620465 -372 645 C-371.34 645 -370.68 645 -370 645 C-370 643.68 -370 642.36 -370 641 C-369.34 641 -368.68 641 -368 641 C-367.896875 640.46375 -367.79375 639.9275 -367.6875 639.375 C-366.81907303 636.37497956 -365.44379704 633.7620465 -364 631 C-363.34 631 -362.68 631 -362 631 C-361.88785156 630.44828125 -361.77570313 629.8965625 -361.66015625 629.328125 C-360.88639227 626.59934789 -359.73182306 624.27227057 -358.4375 621.75 C-357.98246094 620.85796875 -357.52742188 619.9659375 -357.05859375 619.046875 C-356.70925781 618.37140625 -356.35992188 617.6959375 -356 617 C-355.34 617 -354.68 617 -354 617 C-353.88785156 616.44828125 -353.77570313 615.8965625 -353.66015625 615.328125 C-352.88639227 612.59934789 -351.73182306 610.27227057 -350.4375 607.75 C-349.98246094 606.85796875 -349.52742188 605.9659375 -349.05859375 605.046875 C-348.70925781 604.37140625 -348.35992188 603.6959375 -348 603 C-347.34 603 -346.68 603 -346 603 C-345.896875 602.46375 -345.79375 601.9275 -345.6875 601.375 C-344.81907303 598.37497956 -343.44379704 595.7620465 -342 593 C-341.34 593 -340.68 593 -340 593 C-340 591.68 -340 590.36 -340 589 C-339.34 589 -338.68 589 -338 589 C-337.71125 588.0925 -337.4225 587.185 -337.125 586.25 C-336.23468224 583.67797092 -335.28505587 581.38653234 -334 579 C-333.34 579 -332.68 579 -332 579 C-331.88785156 578.44828125 -331.77570313 577.8965625 -331.66015625 577.328125 C-330.88639227 574.59934789 -329.73182306 572.27227057 -328.4375 569.75 C-327.98246094 568.85796875 -327.52742188 567.9659375 -327.05859375 567.046875 C-326.70925781 566.37140625 -326.35992188 565.6959375 -326 565 C-325.34 565 -324.68 565 -324 565 C-323.896875 564.46375 -323.79375 563.9275 -323.6875 563.375 C-322.81907303 560.37497956 -321.44379704 557.7620465 -320 555 C-319.34 555 -318.68 555 -318 555 C-318 553.68 -318 552.36 -318 551 C-317.34 551 -316.68 551 -316 551 C-315.896875 550.46375 -315.79375 549.9275 -315.6875 549.375 C-314.81907303 546.37497956 -313.44379704 543.7620465 -312 541 C-311.34 541 -310.68 541 -310 541 C-309.88785156 540.44828125 -309.77570313 539.8965625 -309.66015625 539.328125 C-308.88639227 536.59934789 -307.73182306 534.27227057 -306.4375 531.75 C-305.98246094 530.85796875 -305.52742188 529.9659375 -305.05859375 529.046875 C-304.70925781 528.37140625 -304.35992188 527.6959375 -304 527 C-303.34 527 -302.68 527 -302 527 C-301.88785156 526.44828125 -301.77570313 525.8965625 -301.66015625 525.328125 C-300.88639227 522.59934789 -299.73182306 520.27227057 -298.4375 517.75 C-297.98246094 516.85796875 -297.52742188 515.9659375 -297.05859375 515.046875 C-296.70925781 514.37140625 -296.35992188 513.6959375 -296 513 C-295.34 513 -294.68 513 -294 513 C-293.896875 512.46375 -293.79375 511.9275 -293.6875 511.375 C-292.81907303 508.37497956 -291.44379704 505.7620465 -290 503 C-289.34 503 -288.68 503 -288 503 C-288 501.68 -288 500.36 -288 499 C-287.34 499 -286.68 499 -286 499 C-285.896875 498.46375 -285.79375 497.9275 -285.6875 497.375 C-284.81907303 494.37497956 -283.44379704 491.7620465 -282 489 C-281.34 489 -280.68 489 -280 489 C-279.88785156 488.44828125 -279.77570313 487.8965625 -279.66015625 487.328125 C-278.88639227 484.59934789 -277.73182306 482.27227057 -276.4375 479.75 C-275.98246094 478.85796875 -275.52742188 477.9659375 -275.05859375 477.046875 C-274.70925781 476.37140625 -274.35992188 475.6959375 -274 475 C-273.34 475 -272.68 475 -272 475 C-271.896875 474.46375 -271.79375 473.9275 -271.6875 473.375 C-270.81907303 470.37497956 -269.44379704 467.7620465 -268 465 C-267.34 465 -266.68 465 -266 465 C-266 463.68 -266 462.36 -266 461 C-265.34 461 -264.68 461 -264 461 C-263.896875 460.46375 -263.79375 459.9275 -263.6875 459.375 C-262.81907303 456.37497956 -261.44379704 453.7620465 -260 451 C-259.34 451 -258.68 451 -258 451 C-257.88785156 450.44828125 -257.77570313 449.8965625 -257.66015625 449.328125 C-256.88639227 446.59934789 -255.73182306 444.27227057 -254.4375 441.75 C-253.98246094 440.85796875 -253.52742188 439.9659375 -253.05859375 439.046875 C-252.70925781 438.37140625 -252.35992188 437.6959375 -252 437 C-251.34 437 -250.68 437 -250 437 C-249.88785156 436.44828125 -249.77570313 435.8965625 -249.66015625 435.328125 C-248.88639227 432.59934789 -247.73182306 430.27227057 -246.4375 427.75 C-245.98246094 426.85796875 -245.52742188 425.9659375 -245.05859375 425.046875 C-244.70925781 424.37140625 -244.35992188 423.6959375 -244 423 C-243.34 423 -242.68 423 -242 423 C-241.896875 422.46375 -241.79375 421.9275 -241.6875 421.375 C-240.81907303 418.37497956 -239.44379704 415.7620465 -238 413 C-237.34 413 -236.68 413 -236 413 C-236 411.68 -236 410.36 -236 409 C-235.34 409 -234.68 409 -234 409 C-233.896875 408.46375 -233.79375 407.9275 -233.6875 407.375 C-232.81907303 404.37497956 -231.44379704 401.7620465 -230 399 C-229.34 399 -228.68 399 -228 399 C-227.88785156 398.44828125 -227.77570313 397.8965625 -227.66015625 397.328125 C-226.88639227 394.59934789 -225.73182306 392.27227057 -224.4375 389.75 C-223.98246094 388.85796875 -223.52742188 387.9659375 -223.05859375 387.046875 C-222.70925781 386.37140625 -222.35992188 385.6959375 -222 385 C-221.34 385 -220.68 385 -220 385 C-219.896875 384.46375 -219.79375 383.9275 -219.6875 383.375 C-218.81907303 380.37497956 -217.44379704 377.7620465 -216 375 C-215.34 375 -214.68 375 -214 375 C-214 373.68 -214 372.36 -214 371 C-213.34 371 -212.68 371 -212 371 C-211.896875 370.46375 -211.79375 369.9275 -211.6875 369.375 C-210.81907303 366.37497956 -209.44379704 363.7620465 -208 361 C-207.34 361 -206.68 361 -206 361 C-206 359.68 -206 358.36 -206 357 C-205.34 357 -204.68 357 -204 357 C-203.71125 356.0925 -203.4225 355.185 -203.125 354.25 C-202.23468224 351.67797092 -201.28505587 349.38653234 -200 347 C-199.34 347 -198.68 347 -198 347 C-197.88785156 346.44828125 -197.77570313 345.8965625 -197.66015625 345.328125 C-196.88639227 342.59934789 -195.73182306 340.27227057 -194.4375 337.75 C-193.98246094 336.85796875 -193.52742188 335.9659375 -193.05859375 335.046875 C-192.70925781 334.37140625 -192.35992188 333.6959375 -192 333 C-191.34 333 -190.68 333 -190 333 C-189.896875 332.46375 -189.79375 331.9275 -189.6875 331.375 C-188.81907303 328.37497956 -187.44379704 325.7620465 -186 323 C-185.34 323 -184.68 323 -184 323 C-184 321.68 -184 320.36 -184 319 C-183.34 319 -182.68 319 -182 319 C-181.896875 318.46375 -181.79375 317.9275 -181.6875 317.375 C-180.81907303 314.37497956 -179.44379704 311.7620465 -178 309 C-177.34 309 -176.68 309 -176 309 C-175.88785156 308.44828125 -175.77570313 307.8965625 -175.66015625 307.328125 C-174.88639227 304.59934789 -173.73182306 302.27227057 -172.4375 299.75 C-171.98246094 298.85796875 -171.52742188 297.9659375 -171.05859375 297.046875 C-170.70925781 296.37140625 -170.35992188 295.6959375 -170 295 C-169.34 295 -168.68 295 -168 295 C-167.88785156 294.44828125 -167.77570313 293.8965625 -167.66015625 293.328125 C-166.88639227 290.59934789 -165.73182306 288.27227057 -164.4375 285.75 C-163.98246094 284.85796875 -163.52742188 283.9659375 -163.05859375 283.046875 C-162.70925781 282.37140625 -162.35992188 281.6959375 -162 281 C-161.34 281 -160.68 281 -160 281 C-159.896875 280.46375 -159.79375 279.9275 -159.6875 279.375 C-158.81907303 276.37497956 -157.44379704 273.7620465 -156 271 C-155.34 271 -154.68 271 -154 271 C-154 269.68 -154 268.36 -154 267 C-153.34 267 -152.68 267 -152 267 C-151.71125 266.0925 -151.4225 265.185 -151.125 264.25 C-150.23468224 261.67797092 -149.28505587 259.38653234 -148 257 C-147.34 257 -146.68 257 -146 257 C-145.88785156 256.44828125 -145.77570312 255.8965625 -145.66015625 255.328125 C-144.88639227 252.59934789 -143.73182306 250.27227057 -142.4375 247.75 C-141.98246094 246.85796875 -141.52742187 245.9659375 -141.05859375 245.046875 C-140.70925781 244.37140625 -140.35992188 243.6959375 -140 243 C-139.34 243 -138.68 243 -138 243 C-137.896875 242.46375 -137.79375 241.9275 -137.6875 241.375 C-136.81907303 238.37497956 -135.44379704 235.7620465 -134 233 C-133.34 233 -132.68 233 -132 233 C-132 231.68 -132 230.36 -132 229 C-131.34 229 -130.68 229 -130 229 C-129.896875 228.46375 -129.79375 227.9275 -129.6875 227.375 C-128.81907303 224.37497956 -127.44379704 221.7620465 -126 219 C-125.34 219 -124.68 219 -124 219 C-123.88785156 218.44828125 -123.77570312 217.8965625 -123.66015625 217.328125 C-122.88639227 214.59934789 -121.73182306 212.27227057 -120.4375 209.75 C-119.98246094 208.85796875 -119.52742187 207.9659375 -119.05859375 207.046875 C-118.70925781 206.37140625 -118.35992188 205.6959375 -118 205 C-117.34 205 -116.68 205 -116 205 C-115.88785156 204.44828125 -115.77570312 203.8965625 -115.66015625 203.328125 C-114.88639227 200.59934789 -113.73182306 198.27227057 -112.4375 195.75 C-111.98246094 194.85796875 -111.52742187 193.9659375 -111.05859375 193.046875 C-110.70925781 192.37140625 -110.35992188 191.6959375 -110 191 C-109.34 191 -108.68 191 -108 191 C-107.896875 190.46375 -107.79375 189.9275 -107.6875 189.375 C-106.81907303 186.37497956 -105.44379704 183.7620465 -104 181 C-103.34 181 -102.68 181 -102 181 C-102 179.68 -102 178.36 -102 177 C-101.34 177 -100.68 177 -100 177 C-99.71125 176.0925 -99.4225 175.185 -99.125 174.25 C-98.23468224 171.67797092 -97.28505587 169.38653234 -96 167 C-95.34 167 -94.68 167 -94 167 C-93.88785156 166.44828125 -93.77570312 165.8965625 -93.66015625 165.328125 C-92.88639227 162.59934789 -91.73182306 160.27227057 -90.4375 157.75 C-89.98246094 156.85796875 -89.52742187 155.9659375 -89.05859375 155.046875 C-88.70925781 154.37140625 -88.35992188 153.6959375 -88 153 C-87.34 153 -86.68 153 -86 153 C-85.896875 152.46375 -85.79375 151.9275 -85.6875 151.375 C-84.81907303 148.37497956 -83.44379704 145.7620465 -82 143 C-81.34 143 -80.68 143 -80 143 C-80 141.68 -80 140.36 -80 139 C-79.34 139 -78.68 139 -78 139 C-77.896875 138.46375 -77.79375 137.9275 -77.6875 137.375 C-76.81907303 134.37497956 -75.44379704 131.7620465 -74 129 C-73.34 129 -72.68 129 -72 129 C-71.88785156 128.44828125 -71.77570312 127.8965625 -71.66015625 127.328125 C-70.88639227 124.59934789 -69.73182306 122.27227057 -68.4375 119.75 C-67.98246094 118.85796875 -67.52742187 117.9659375 -67.05859375 117.046875 C-66.53458984 116.03367188 -66.53458984 116.03367188 -66 115 C-65.34 115 -64.68 115 -64 115 C-63.88785156 114.44828125 -63.77570312 113.8965625 -63.66015625 113.328125 C-62.88639227 110.59934789 -61.73182306 108.27227057 -60.4375 105.75 C-59.98246094 104.85796875 -59.52742187 103.9659375 -59.05859375 103.046875 C-58.53458984 102.03367188 -58.53458984 102.03367188 -58 101 C-57.34 101 -56.68 101 -56 101 C-55.8453125 100.195625 -55.8453125 100.195625 -55.6875 99.375 C-54.81907303 96.37497956 -53.44379704 93.7620465 -52 91 C-51.34 91 -50.68 91 -50 91 C-50 89.68 -50 88.36 -50 87 C-49.34 87 -48.68 87 -48 87 C-47.8453125 86.195625 -47.8453125 86.195625 -47.6875 85.375 C-46.81907303 82.37497956 -45.44379704 79.7620465 -44 77 C-43.34 77 -42.68 77 -42 77 C-41.88785156 76.44828125 -41.77570312 75.8965625 -41.66015625 75.328125 C-40.88639227 72.59934789 -39.73182306 70.27227057 -38.4375 67.75 C-37.98246094 66.85796875 -37.52742187 65.9659375 -37.05859375 65.046875 C-36.53458984 64.03367188 -36.53458984 64.03367188 -36 63 C-35.34 63 -34.68 63 -34 63 C-33.896875 62.46375 -33.79375 61.9275 -33.6875 61.375 C-32.81907303 58.37497956 -31.44379704 55.7620465 -30 53 C-29.34 53 -28.68 53 -28 53 C-28 51.68 -28 50.36 -28 49 C-27.34 49 -26.68 49 -26 49 C-25.896875 48.46375 -25.79375 47.9275 -25.6875 47.375 C-24.81907303 44.37497956 -23.44379704 41.7620465 -22 39 C-21.34 39 -20.68 39 -20 39 C-19.88785156 38.44828125 -19.77570312 37.8965625 -19.66015625 37.328125 C-18.88639227 34.59934789 -17.73182306 32.27227057 -16.4375 29.75 C-15.98246094 28.85796875 -15.52742187 27.9659375 -15.05859375 27.046875 C-14.70925781 26.37140625 -14.35992188 25.6959375 -14 25 C-13.34 25 -12.68 25 -12 25 C-11.88785156 24.44828125 -11.77570312 23.8965625 -11.66015625 23.328125 C-10.88639227 20.59934789 -9.73182306 18.27227057 -8.4375 15.75 C-7.98246094 14.85796875 -7.52742187 13.9659375 -7.05859375 13.046875 C-6.70925781 12.37140625 -6.35992188 11.6959375 -6 11 C-5.34 11 -4.68 11 -4 11 C-3.896875 10.484375 -3.79375 9.96875 -3.6875 9.4375 C-2.75736134 6.13973565 -1.38604488 3.13366668 0 0 Z M2 105 C1.34 106.093125 0.68 107.18625 0 108.3125 C-0.37125 108.92738281 -0.7425 109.54226562 -1.125 110.17578125 C-2.21623999 112.11361926 -2.21623999 112.11361926 -2 115 C-2.66 115 -3.32 115 -4 115 C-5.0076952 116.7664657 -6.00591714 118.53833823 -7 120.3125 C-7.556875 121.29863281 -8.11375 122.28476562 -8.6875 123.30078125 C-10.21864753 125.94942471 -10.21864753 125.94942471 -10 129 C-10.66 129 -11.32 129 -12 129 C-13.0076952 130.7664657 -14.00591714 132.53833823 -15 134.3125 C-15.556875 135.29863281 -16.11375 136.28476562 -16.6875 137.30078125 C-18.21864753 139.94942471 -18.21864753 139.94942471 -18 143 C-18.66 143 -19.32 143 -20 143 C-20.66 144.093125 -21.32 145.18625 -22 146.3125 C-22.37125 146.92738281 -22.7425 147.54226563 -23.125 148.17578125 C-24.21623999 150.11361926 -24.21623999 150.11361926 -24 153 C-24.66 153 -25.32 153 -26 153 C-26 154.32 -26 155.64 -26 157 C-26.66 157 -27.32 157 -28 157 C-28.66 158.093125 -29.32 159.18625 -30 160.3125 C-30.37125 160.92738281 -30.7425 161.54226563 -31.125 162.17578125 C-32.21623999 164.11361926 -32.21623999 164.11361926 -32 167 C-32.66 167 -33.32 167 -34 167 C-35.0076952 168.7664657 -36.00591714 170.53833823 -37 172.3125 C-37.556875 173.29863281 -38.11375 174.28476562 -38.6875 175.30078125 C-40.21864753 177.94942471 -40.21864753 177.94942471 -40 181 C-40.66 181 -41.32 181 -42 181 C-42.66 182.093125 -43.32 183.18625 -44 184.3125 C-44.37125 184.92738281 -44.7425 185.54226563 -45.125 186.17578125 C-46.21623999 188.11361926 -46.21623999 188.11361926 -46 191 C-46.66 191 -47.32 191 -48 191 C-48 192.32 -48 193.64 -48 195 C-48.66 195 -49.32 195 -50 195 C-50.66 196.093125 -51.32 197.18625 -52 198.3125 C-52.37125 198.92738281 -52.7425 199.54226563 -53.125 200.17578125 C-54.21623999 202.11361926 -54.21623999 202.11361926 -54 205 C-54.66 205 -55.32 205 -56 205 C-56 206.32 -56 207.64 -56 209 C-56.66 209 -57.32 209 -58 209 C-58.66 210.093125 -59.32 211.18625 -60 212.3125 C-60.37125 212.92738281 -60.7425 213.54226563 -61.125 214.17578125 C-62.21623999 216.11361926 -62.21623999 216.11361926 -62 219 C-62.66 219 -63.32 219 -64 219 C-65.0076952 220.7664657 -66.00591714 222.53833823 -67 224.3125 C-67.556875 225.29863281 -68.11375 226.28476562 -68.6875 227.30078125 C-70.21864753 229.94942471 -70.21864753 229.94942471 -70 233 C-70.66 233 -71.32 233 -72 233 C-72.66 234.093125 -73.32 235.18625 -74 236.3125 C-74.37125 236.92738281 -74.7425 237.54226563 -75.125 238.17578125 C-76.21623999 240.11361926 -76.21623999 240.11361926 -76 243 C-76.66 243 -77.32 243 -78 243 C-78 244.32 -78 245.64 -78 247 C-78.66 247 -79.32 247 -80 247 C-80.66 248.093125 -81.32 249.18625 -82 250.3125 C-82.37125 250.92738281 -82.7425 251.54226563 -83.125 252.17578125 C-84.21623999 254.11361926 -84.21623999 254.11361926 -84 257 C-84.66 257 -85.32 257 -86 257 C-87.0076952 258.7664657 -88.00591714 260.53833823 -89 262.3125 C-89.8353125 263.79169922 -89.8353125 263.79169922 -90.6875 265.30078125 C-92.21864753 267.94942471 -92.21864753 267.94942471 -92 271 C-92.66 271 -93.32 271 -94 271 C-95.0076952 272.7664657 -96.00591714 274.53833823 -97 276.3125 C-97.8353125 277.79169922 -97.8353125 277.79169922 -98.6875 279.30078125 C-100.21864753 281.94942471 -100.21864753 281.94942471 -100 285 C-100.66 285 -101.32 285 -102 285 C-102.66 286.093125 -103.32 287.18625 -104 288.3125 C-104.37125 288.92738281 -104.7425 289.54226563 -105.125 290.17578125 C-106.21623999 292.11361926 -106.21623999 292.11361926 -106 295 C-106.66 295 -107.32 295 -108 295 C-108 296.32 -108 297.64 -108 299 C-108.66 299 -109.32 299 -110 299 C-110.66 300.093125 -111.32 301.18625 -112 302.3125 C-112.37125 302.92738281 -112.7425 303.54226563 -113.125 304.17578125 C-114.21623999 306.11361926 -114.21623999 306.11361926 -114 309 C-114.66 309 -115.32 309 -116 309 C-117.0076952 310.7664657 -118.00591714 312.53833823 -119 314.3125 C-119.8353125 315.79169922 -119.8353125 315.79169922 -120.6875 317.30078125 C-122.21864753 319.94942471 -122.21864753 319.94942471 -122 323 C-122.66 323 -123.32 323 -124 323 C-124.66 324.093125 -125.32 325.18625 -126 326.3125 C-126.37125 326.92738281 -126.7425 327.54226563 -127.125 328.17578125 C-128.21623999 330.11361926 -128.21623999 330.11361926 -128 333 C-128.66 333 -129.32 333 -130 333 C-130 334.32 -130 335.64 -130 337 C-130.66 337 -131.32 337 -132 337 C-132.66 338.093125 -133.32 339.18625 -134 340.3125 C-134.37125 340.92738281 -134.7425 341.54226563 -135.125 342.17578125 C-136.21623999 344.11361926 -136.21623999 344.11361926 -136 347 C-136.66 347 -137.32 347 -138 347 C-139.0076952 348.7664657 -140.00591714 350.53833823 -141 352.3125 C-141.8353125 353.79169922 -141.8353125 353.79169922 -142.6875 355.30078125 C-144.21864753 357.94942471 -144.21864753 357.94942471 -144 361 C-144.66 361 -145.32 361 -146 361 C-147.0076952 362.7664657 -148.00591714 364.53833823 -149 366.3125 C-149.556875 367.29863281 -150.11375 368.28476562 -150.6875 369.30078125 C-152.21864753 371.94942471 -152.21864753 371.94942471 -152 375 C-152.66 375 -153.32 375 -154 375 C-154.66 376.093125 -155.32 377.18625 -156 378.3125 C-156.37125 378.92738281 -156.7425 379.54226563 -157.125 380.17578125 C-158.21623999 382.11361926 -158.21623999 382.11361926 -158 385 C-158.66 385 -159.32 385 -160 385 C-160 386.32 -160 387.64 -160 389 C-160.66 389 -161.32 389 -162 389 C-162.66 390.093125 -163.32 391.18625 -164 392.3125 C-164.37125 392.92738281 -164.7425 393.54226563 -165.125 394.17578125 C-166.21623999 396.11361926 -166.21623999 396.11361926 -166 399 C-166.66 399 -167.32 399 -168 399 C-169.0076952 400.7664657 -170.00591714 402.53833823 -171 404.3125 C-171.556875 405.29863281 -172.11375 406.28476562 -172.6875 407.30078125 C-174.21864753 409.94942471 -174.21864753 409.94942471 -174 413 C-174.66 413 -175.32 413 -176 413 C-176.66 414.093125 -177.32 415.18625 -178 416.3125 C-178.37125 416.92738281 -178.7425 417.54226563 -179.125 418.17578125 C-180.21623999 420.11361926 -180.21623999 420.11361926 -180 423 C-180.66 423 -181.32 423 -182 423 C-182 424.32 -182 425.64 -182 427 C-182.66 427 -183.32 427 -184 427 C-184.66 428.093125 -185.32 429.18625 -186 430.3125 C-186.37125 430.92738281 -186.7425 431.54226563 -187.125 432.17578125 C-188.21623999 434.11361926 -188.21623999 434.11361926 -188 437 C-188.66 437 -189.32 437 -190 437 C-191.0076952 438.7664657 -192.00591714 440.53833823 -193 442.3125 C-193.556875 443.29863281 -194.11375 444.28476562 -194.6875 445.30078125 C-196.21864753 447.94942471 -196.21864753 447.94942471 -196 451 C-196.66 451 -197.32 451 -198 451 C-199.0076952 452.7664657 -200.00591714 454.53833823 -201 456.3125 C-201.556875 457.29863281 -202.11375 458.28476562 -202.6875 459.30078125 C-204.21864753 461.94942471 -204.21864753 461.94942471 -204 465 C-204.66 465 -205.32 465 -206 465 C-206.66 466.093125 -207.32 467.18625 -208 468.3125 C-208.37125 468.92738281 -208.7425 469.54226563 -209.125 470.17578125 C-210.21623999 472.11361926 -210.21623999 472.11361926 -210 475 C-210.66 475 -211.32 475 -212 475 C-212 476.32 -212 477.64 -212 479 C-212.66 479 -213.32 479 -214 479 C-214.66 480.093125 -215.32 481.18625 -216 482.3125 C-216.37125 482.92738281 -216.7425 483.54226563 -217.125 484.17578125 C-218.21623999 486.11361926 -218.21623999 486.11361926 -218 489 C-218.66 489 -219.32 489 -220 489 C-221.0076952 490.7664657 -222.00591714 492.53833823 -223 494.3125 C-223.556875 495.29863281 -224.11375 496.28476562 -224.6875 497.30078125 C-226.21864753 499.94942471 -226.21864753 499.94942471 -226 503 C-226.66 503 -227.32 503 -228 503 C-228.66 504.093125 -229.32 505.18625 -230 506.3125 C-230.37125 506.92738281 -230.7425 507.54226563 -231.125 508.17578125 C-232.21623999 510.11361926 -232.21623999 510.11361926 -232 513 C-232.66 513 -233.32 513 -234 513 C-234 514.32 -234 515.64 -234 517 C-234.66 517 -235.32 517 -236 517 C-236.66 518.093125 -237.32 519.18625 -238 520.3125 C-238.37125 520.92738281 -238.7425 521.54226563 -239.125 522.17578125 C-240.21623999 524.11361926 -240.21623999 524.11361926 -240 527 C-240.66 527 -241.32 527 -242 527 C-243.0076952 528.7664657 -244.00591714 530.53833823 -245 532.3125 C-245.556875 533.29863281 -246.11375 534.28476562 -246.6875 535.30078125 C-248.21864753 537.94942471 -248.21864753 537.94942471 -248 541 C-248.66 541 -249.32 541 -250 541 C-251.0076952 542.7664657 -252.00591714 544.53833823 -253 546.3125 C-253.556875 547.29863281 -254.11375 548.28476562 -254.6875 549.30078125 C-256.21864753 551.94942471 -256.21864753 551.94942471 -256 555 C-256.66 555 -257.32 555 -258 555 C-258.66 556.093125 -259.32 557.18625 -260 558.3125 C-260.37125 558.92738281 -260.7425 559.54226563 -261.125 560.17578125 C-262.21623999 562.11361926 -262.21623999 562.11361926 -262 565 C-262.66 565 -263.32 565 -264 565 C-264 566.32 -264 567.64 -264 569 C-264.66 569 -265.32 569 -266 569 C-266.66 570.093125 -267.32 571.18625 -268 572.3125 C-268.37125 572.92738281 -268.7425 573.54226563 -269.125 574.17578125 C-270.21623999 576.11361926 -270.21623999 576.11361926 -270 579 C-270.66 579 -271.32 579 -272 579 C-273.0076952 580.7664657 -274.00591714 582.53833823 -275 584.3125 C-275.556875 585.29863281 -276.11375 586.28476562 -276.6875 587.30078125 C-278.21864753 589.94942471 -278.21864753 589.94942471 -278 593 C-278.66 593 -279.32 593 -280 593 C-280.66 594.093125 -281.32 595.18625 -282 596.3125 C-282.37125 596.92738281 -282.7425 597.54226563 -283.125 598.17578125 C-284.21623999 600.11361926 -284.21623999 600.11361926 -284 603 C-284.66 603 -285.32 603 -286 603 C-286 604.32 -286 605.64 -286 607 C-286.66 607 -287.32 607 -288 607 C-288.66 608.093125 -289.32 609.18625 -290 610.3125 C-290.37125 610.92738281 -290.7425 611.54226563 -291.125 612.17578125 C-292.21623999 614.11361926 -292.21623999 614.11361926 -292 617 C-292.66 617 -293.32 617 -294 617 C-294 618.32 -294 619.64 -294 621 C-294.66 621 -295.32 621 -296 621 C-296.66 622.093125 -297.32 623.18625 -298 624.3125 C-298.37125 624.92738281 -298.7425 625.54226563 -299.125 626.17578125 C-300.21623999 628.11361926 -300.21623999 628.11361926 -300 631 C-300.66 631 -301.32 631 -302 631 C-303.0076952 632.7664657 -304.00591714 634.53833823 -305 636.3125 C-305.556875 637.29863281 -306.11375 638.28476562 -306.6875 639.30078125 C-308.21864753 641.94942471 -308.21864753 641.94942471 -308 645 C-308.66 645 -309.32 645 -310 645 C-310.66 646.093125 -311.32 647.18625 -312 648.3125 C-312.37125 648.92738281 -312.7425 649.54226563 -313.125 650.17578125 C-314.21623999 652.11361926 -314.21623999 652.11361926 -314 655 C-314.66 655 -315.32 655 -316 655 C-316 656.32 -316 657.64 -316 659 C-316.66 659 -317.32 659 -318 659 C-318.99 660.6396875 -318.99 660.6396875 -320 662.3125 C-320.37125 662.92738281 -320.7425 663.54226563 -321.125 664.17578125 C-322.21623999 666.11361926 -322.21623999 666.11361926 -322 669 C-322.66 669 -323.32 669 -324 669 C-325.0076952 670.7664657 -326.00591714 672.53833823 -327 674.3125 C-327.556875 675.29863281 -328.11375 676.28476562 -328.6875 677.30078125 C-330.21864753 679.94942471 -330.21864753 679.94942471 -330 683 C-330.66 683 -331.32 683 -332 683 C-333.0076952 684.7664657 -334.00591714 686.53833823 -335 688.3125 C-335.556875 689.29863281 -336.11375 690.28476562 -336.6875 691.30078125 C-338.21864753 693.94942471 -338.21864753 693.94942471 -338 697 C-338.66 697 -339.32 697 -340 697 C-340.99 698.6396875 -340.99 698.6396875 -342 700.3125 C-342.37125 700.92738281 -342.7425 701.54226563 -343.125 702.17578125 C-344.21623999 704.11361926 -344.21623999 704.11361926 -344 707 C-344.66 707 -345.32 707 -346 707 C-346 708.32 -346 709.64 -346 711 C-346.66 711 -347.32 711 -348 711 C-348.99 712.6396875 -348.99 712.6396875 -350 714.3125 C-350.37125 714.92738281 -350.7425 715.54226563 -351.125 716.17578125 C-352.21623999 718.11361926 -352.21623999 718.11361926 -352 721 C-352.66 721 -353.32 721 -354 721 C-355.0076952 722.7664657 -356.00591714 724.53833823 -357 726.3125 C-357.556875 727.29863281 -358.11375 728.28476562 -358.6875 729.30078125 C-360.21864753 731.94942471 -360.21864753 731.94942471 -360 735 C-360.66 735 -361.32 735 -362 735 C-362.99 736.6396875 -362.99 736.6396875 -364 738.3125 C-364.37125 738.92738281 -364.7425 739.54226563 -365.125 740.17578125 C-366.21623999 742.11361926 -366.21623999 742.11361926 -366 745 C-366.66 745 -367.32 745 -368 745 C-368 746.32 -368 747.64 -368 749 C-368.66 749 -369.32 749 -370 749 C-370.99 750.6396875 -370.99 750.6396875 -372 752.3125 C-372.37125 752.92738281 -372.7425 753.54226563 -373.125 754.17578125 C-374.21623999 756.11361926 -374.21623999 756.11361926 -374 759 C-374.66 759 -375.32 759 -376 759 C-377.0076952 760.7664657 -378.00591714 762.53833823 -379 764.3125 C-379.556875 765.29863281 -380.11375 766.28476562 -380.6875 767.30078125 C-382.21864753 769.94942471 -382.21864753 769.94942471 -382 773 C-382.66 773 -383.32 773 -384 773 C-385.0076952 774.7664657 -386.00591714 776.53833823 -387 778.3125 C-387.556875 779.29863281 -388.11375 780.28476562 -388.6875 781.30078125 C-390.21864753 783.94942471 -390.21864753 783.94942471 -390 787 C-390.66 787 -391.32 787 -392 787 C-392.99 788.6396875 -392.99 788.6396875 -394 790.3125 C-394.37125 790.92738281 -394.7425 791.54226563 -395.125 792.17578125 C-396.21623999 794.11361926 -396.21623999 794.11361926 -396 797 C-396.66 797 -397.32 797 -398 797 C-398 798.32 -398 799.64 -398 801 C-398.66 801 -399.32 801 -400 801 C-400.99 802.6396875 -400.99 802.6396875 -402 804.3125 C-402.37125 804.92738281 -402.7425 805.54226563 -403.125 806.17578125 C-404.21623999 808.11361926 -404.21623999 808.11361926 -404 811 C-404.66 811 -405.32 811 -406 811 C-407.0076952 812.7664657 -408.00591714 814.53833823 -409 816.3125 C-409.556875 817.29863281 -410.11375 818.28476562 -410.6875 819.30078125 C-412.21864753 821.94942471 -412.21864753 821.94942471 -412 825 C-412.66 825 -413.32 825 -414 825 C-414.99 826.6396875 -414.99 826.6396875 -416 828.3125 C-416.37125 828.92738281 -416.7425 829.54226563 -417.125 830.17578125 C-418.21623999 832.11361926 -418.21623999 832.11361926 -418 835 C-418.66 835 -419.32 835 -420 835 C-420 836.32 -420 837.64 -420 839 C-420.66 839 -421.32 839 -422 839 C-422.99 840.6396875 -422.99 840.6396875 -424 842.3125 C-424.37125 842.92738281 -424.7425 843.54226563 -425.125 844.17578125 C-426.21623999 846.11361926 -426.21623999 846.11361926 -426 849 C-426.66 849 -427.32 849 -428 849 C-429.0076952 850.7664657 -430.00591714 852.53833823 -431 854.3125 C-431.556875 855.29863281 -432.11375 856.28476562 -432.6875 857.30078125 C-434.21864753 859.94942471 -434.21864753 859.94942471 -434 863 C-434.66 863 -435.32 863 -436 863 C-437.0076952 864.7664657 -438.00591714 866.53833823 -439 868.3125 C-439.556875 869.29863281 -440.11375 870.28476562 -440.6875 871.30078125 C-442.21864753 873.94942471 -442.21864753 873.94942471 -442 877 C-442.66 877 -443.32 877 -444 877 C-444.99 878.6396875 -444.99 878.6396875 -446 880.3125 C-446.37125 880.92738281 -446.7425 881.54226563 -447.125 882.17578125 C-448.21623999 884.11361926 -448.21623999 884.11361926 -448 887 C-448.66 887 -449.32 887 -450 887 C-450 888.32 -450 889.64 -450 891 C-450.66 891 -451.32 891 -452 891 C-452.99 892.6396875 -452.99 892.6396875 -454 894.3125 C-454.37125 894.92738281 -454.7425 895.54226563 -455.125 896.17578125 C-456.21623999 898.11361926 -456.21623999 898.11361926 -456 901 C-456.66 901 -457.32 901 -458 901 C-459.0076952 902.7664657 -460.00591714 904.53833823 -461 906.3125 C-461.556875 907.29863281 -462.11375 908.28476563 -462.6875 909.30078125 C-464.21864753 911.94942471 -464.21864753 911.94942471 -464 915 C-464.66 915 -465.32 915 -466 915 C-466.99 916.6396875 -466.99 916.6396875 -468 918.3125 C-468.37125 918.92738281 -468.7425 919.54226563 -469.125 920.17578125 C-470.21623999 922.11361926 -470.21623999 922.11361926 -470 925 C-470.66 925 -471.32 925 -472 925 C-472 926.32 -472 927.64 -472 929 C-472.66 929 -473.32 929 -474 929 C-474.99 930.6396875 -474.99 930.6396875 -476 932.3125 C-476.37125 932.92738281 -476.7425 933.54226563 -477.125 934.17578125 C-478.21623999 936.11361926 -478.21623999 936.11361926 -478 939 C-478.66 939 -479.32 939 -480 939 C-480 940.32 -480 941.64 -480 943 C-480.66 943 -481.32 943 -482 943 C-482.99 944.6396875 -482.99 944.6396875 -484 946.3125 C-484.37125 946.92738281 -484.7425 947.54226563 -485.125 948.17578125 C-486.21623999 950.11361926 -486.21623999 950.11361926 -486 953 C-486.66 953 -487.32 953 -488 953 C-489.0076952 954.7664657 -490.00591714 956.53833823 -491 958.3125 C-491.556875 959.29863281 -492.11375 960.28476563 -492.6875 961.30078125 C-494.21864753 963.94942471 -494.21864753 963.94942471 -494 967 C-494.66 967 -495.32 967 -496 967 C-496.99 968.6396875 -496.99 968.6396875 -498 970.3125 C-498.37125 970.92738281 -498.7425 971.54226563 -499.125 972.17578125 C-500.21623999 974.11361926 -500.21623999 974.11361926 -500 977 C-500.66 977 -501.32 977 -502 977 C-502 978.32 -502 979.64 -502 981 C-502.66 981 -503.32 981 -504 981 C-504.99 982.6396875 -504.99 982.6396875 -506 984.3125 C-506.37125 984.92738281 -506.7425 985.54226563 -507.125 986.17578125 C-508.21623999 988.11361926 -508.21623999 988.11361926 -508 991 C-508.66 991 -509.32 991 -510 991 C-511.0076952 992.7664657 -512.00591714 994.53833823 -513 996.3125 C-513.556875 997.29863281 -514.11375 998.28476563 -514.6875 999.30078125 C-516.21864753 1001.94942471 -516.21864753 1001.94942471 -516 1005 C-516.66 1005 -517.32 1005 -518 1005 C-519.0076952 1006.7664657 -520.00591714 1008.53833823 -521 1010.3125 C-521.556875 1011.29863281 -522.11375 1012.28476563 -522.6875 1013.30078125 C-524.21864753 1015.94942471 -524.21864753 1015.94942471 -524 1019 C-524.66 1019 -525.32 1019 -526 1019 C-526.99 1020.6396875 -526.99 1020.6396875 -528 1022.3125 C-528.556875 1023.23482422 -528.556875 1023.23482422 -529.125 1024.17578125 C-530.21623999 1026.11361926 -530.21623999 1026.11361926 -530 1029 C-530.66 1029 -531.32 1029 -532 1029 C-532 1030.32 -532 1031.64 -532 1033 C-532.66 1033 -533.32 1033 -534 1033 C-534.99 1034.6396875 -534.99 1034.6396875 -536 1036.3125 C-536.556875 1037.23482422 -536.556875 1037.23482422 -537.125 1038.17578125 C-538.21623999 1040.11361926 -538.21623999 1040.11361926 -538 1043 C-538.66 1043 -539.32 1043 -540 1043 C-541.0076952 1044.7664657 -542.00591714 1046.53833823 -543 1048.3125 C-543.556875 1049.29863281 -544.11375 1050.28476563 -544.6875 1051.30078125 C-546.21864753 1053.94942471 -546.21864753 1053.94942471 -546 1057 C-546.66 1057 -547.32 1057 -548 1057 C-548.99 1058.6396875 -548.99 1058.6396875 -550 1060.3125 C-550.37125 1060.92738281 -550.7425 1061.54226563 -551.125 1062.17578125 C-552.21623999 1064.11361926 -552.21623999 1064.11361926 -552 1067 C-552.66 1067 -553.32 1067 -554 1067 C-554 1068.32 -554 1069.64 -554 1071 C-554.66 1071 -555.32 1071 -556 1071 C-556.99 1072.6396875 -556.99 1072.6396875 -558 1074.3125 C-558.37125 1074.92738281 -558.7425 1075.54226563 -559.125 1076.17578125 C-560.21623999 1078.11361926 -560.21623999 1078.11361926 -560 1081 C-560.66 1081 -561.32 1081 -562 1081 C-563.0076952 1082.7664657 -564.00591714 1084.53833823 -565 1086.3125 C-565.556875 1087.29863281 -566.11375 1088.28476563 -566.6875 1089.30078125 C-568.21864753 1091.94942471 -568.21864753 1091.94942471 -568 1095 C-568.66 1095 -569.32 1095 -570 1095 C-570.66 1096.32 -571.32 1097.64 -572 1099 C-192.83 1099 186.34 1099 577 1099 C576.67 1097.68 576.34 1096.36 576 1095 C575.34 1095 574.68 1095 574 1095 C573.896875 1094.46375 573.79375 1093.9275 573.6875 1093.375 C572.81907303 1090.37497956 571.44379704 1087.7620465 570 1085 C569.34 1085 568.68 1085 568 1085 C567.88785156 1084.44828125 567.77570313 1083.8965625 567.66015625 1083.328125 C566.88639227 1080.59934789 565.73182306 1078.27227057 564.4375 1075.75 C563.75494141 1074.41195313 563.75494141 1074.41195313 563.05859375 1073.046875 C562.70925781 1072.37140625 562.35992188 1071.6959375 562 1071 C561.34 1071 560.68 1071 560 1071 C559.88785156 1070.44828125 559.77570313 1069.8965625 559.66015625 1069.328125 C558.88639227 1066.59934789 557.73182306 1064.27227057 556.4375 1061.75 C555.75494141 1060.41195313 555.75494141 1060.41195313 555.05859375 1059.046875 C554.70925781 1058.37140625 554.35992188 1057.6959375 554 1057 C553.34 1057 552.68 1057 552 1057 C551.896875 1056.46375 551.79375 1055.9275 551.6875 1055.375 C550.81907303 1052.37497956 549.44379704 1049.7620465 548 1047 C547.34 1047 546.68 1047 546 1047 C546 1045.68 546 1044.36 546 1043 C545.34 1043 544.68 1043 544 1043 C543.896875 1042.46375 543.79375 1041.9275 543.6875 1041.375 C542.81907303 1038.37497956 541.44379704 1035.7620465 540 1033 C539.34 1033 538.68 1033 538 1033 C537.88785156 1032.44828125 537.77570313 1031.8965625 537.66015625 1031.328125 C536.88639227 1028.59934789 535.73182306 1026.27227057 534.4375 1023.75 C533.75494141 1022.41195313 533.75494141 1022.41195313 533.05859375 1021.046875 C532.70925781 1020.37140625 532.35992188 1019.6959375 532 1019 C531.34 1019 530.68 1019 530 1019 C529.88785156 1018.44828125 529.77570313 1017.8965625 529.66015625 1017.328125 C528.88639227 1014.59934789 527.73182306 1012.27227057 526.4375 1009.75 C525.75494141 1008.41195313 525.75494141 1008.41195313 525.05859375 1007.046875 C524.70925781 1006.37140625 524.35992188 1005.6959375 524 1005 C523.34 1005 522.68 1005 522 1005 C521.896875 1004.46375 521.79375 1003.9275 521.6875 1003.375 C520.81907303 1000.37497956 519.44379704 997.7620465 518 995 C517.34 995 516.68 995 516 995 C516 993.68 516 992.36 516 991 C515.34 991 514.68 991 514 991 C513.896875 990.46375 513.79375 989.9275 513.6875 989.375 C512.81907303 986.37497956 511.44379704 983.7620465 510 981 C509.34 981 508.68 981 508 981 C507.88785156 980.44828125 507.77570313 979.8965625 507.66015625 979.328125 C506.88639227 976.59934789 505.73182306 974.27227057 504.4375 971.75 C503.75494141 970.41195313 503.75494141 970.41195313 503.05859375 969.046875 C502.70925781 968.37140625 502.35992188 967.6959375 502 967 C501.34 967 500.68 967 500 967 C499.88785156 966.44828125 499.77570313 965.8965625 499.66015625 965.328125 C498.88639227 962.59934789 497.73182306 960.27227057 496.4375 957.75 C495.75494141 956.41195313 495.75494141 956.41195313 495.05859375 955.046875 C494.70925781 954.37140625 494.35992188 953.6959375 494 953 C493.34 953 492.68 953 492 953 C491.896875 952.46375 491.79375 951.9275 491.6875 951.375 C490.81907303 948.37497956 489.44379704 945.7620465 488 943 C487.34 943 486.68 943 486 943 C486 941.68 486 940.36 486 939 C485.34 939 484.68 939 484 939 C483.896875 938.46375 483.79375 937.9275 483.6875 937.375 C482.81907303 934.37497956 481.44379704 931.7620465 480 929 C479.34 929 478.68 929 478 929 C477.88785156 928.44828125 477.77570313 927.8965625 477.66015625 927.328125 C476.88639227 924.59934789 475.73182306 922.27227057 474.4375 919.75 C473.75494141 918.41195313 473.75494141 918.41195313 473.05859375 917.046875 C472.70925781 916.37140625 472.35992188 915.6959375 472 915 C471.34 915 470.68 915 470 915 C469.88785156 914.44828125 469.77570313 913.8965625 469.66015625 913.328125 C468.88639227 910.59934789 467.73182306 908.27227057 466.4375 905.75 C465.75494141 904.41195313 465.75494141 904.41195313 465.05859375 903.046875 C464.70925781 902.37140625 464.35992188 901.6959375 464 901 C463.34 901 462.68 901 462 901 C461.896875 900.46375 461.79375 899.9275 461.6875 899.375 C460.81907303 896.37497956 459.44379704 893.7620465 458 891 C457.34 891 456.68 891 456 891 C456 889.68 456 888.36 456 887 C455.34 887 454.68 887 454 887 C453.896875 886.46375 453.79375 885.9275 453.6875 885.375 C452.81907303 882.37497956 451.44379704 879.7620465 450 877 C449.34 877 448.68 877 448 877 C447.88785156 876.44828125 447.77570312 875.8965625 447.66015625 875.328125 C446.88639227 872.59934789 445.73182306 870.27227057 444.4375 867.75 C443.98246094 866.85796875 443.52742188 865.9659375 443.05859375 865.046875 C442.70925781 864.37140625 442.35992188 863.6959375 442 863 C441.34 863 440.68 863 440 863 C439.88785156 862.44828125 439.77570312 861.8965625 439.66015625 861.328125 C438.88639227 858.59934789 437.73182306 856.27227057 436.4375 853.75 C435.98246094 852.85796875 435.52742188 851.9659375 435.05859375 851.046875 C434.70925781 850.37140625 434.35992188 849.6959375 434 849 C433.34 849 432.68 849 432 849 C431.8453125 848.195625 431.8453125 848.195625 431.6875 847.375 C430.81907303 844.37497956 429.44379704 841.7620465 428 839 C427.34 839 426.68 839 426 839 C426 837.68 426 836.36 426 835 C425.34 835 424.68 835 424 835 C423.8453125 834.195625 423.8453125 834.195625 423.6875 833.375 C422.81907303 830.37497956 421.44379704 827.7620465 420 825 C419.34 825 418.68 825 418 825 C417.88785156 824.44828125 417.77570312 823.8965625 417.66015625 823.328125 C416.88639227 820.59934789 415.73182306 818.27227057 414.4375 815.75 C413.98246094 814.85796875 413.52742188 813.9659375 413.05859375 813.046875 C412.70925781 812.37140625 412.35992188 811.6959375 412 811 C411.34 811 410.68 811 410 811 C409.88785156 810.44828125 409.77570312 809.8965625 409.66015625 809.328125 C408.88639227 806.59934789 407.73182306 804.27227057 406.4375 801.75 C405.98246094 800.85796875 405.52742188 799.9659375 405.05859375 799.046875 C404.70925781 798.37140625 404.35992188 797.6959375 404 797 C403.34 797 402.68 797 402 797 C401.8453125 796.195625 401.8453125 796.195625 401.6875 795.375 C400.81907303 792.37497956 399.44379704 789.7620465 398 787 C397.34 787 396.68 787 396 787 C396 785.68 396 784.36 396 783 C395.34 783 394.68 783 394 783 C393.8453125 782.195625 393.8453125 782.195625 393.6875 781.375 C392.81907303 778.37497956 391.44379704 775.7620465 390 773 C389.34 773 388.68 773 388 773 C387.88785156 772.44828125 387.77570312 771.8965625 387.66015625 771.328125 C386.88639227 768.59934789 385.73182306 766.27227057 384.4375 763.75 C383.98246094 762.85796875 383.52742188 761.9659375 383.05859375 761.046875 C382.70925781 760.37140625 382.35992188 759.6959375 382 759 C381.34 759 380.68 759 380 759 C379.88785156 758.44828125 379.77570312 757.8965625 379.66015625 757.328125 C378.88639227 754.59934789 377.73182306 752.27227057 376.4375 749.75 C375.98246094 748.85796875 375.52742188 747.9659375 375.05859375 747.046875 C374.70925781 746.37140625 374.35992188 745.6959375 374 745 C373.34 745 372.68 745 372 745 C371.8453125 744.195625 371.8453125 744.195625 371.6875 743.375 C370.81907303 740.37497956 369.44379704 737.7620465 368 735 C367.34 735 366.68 735 366 735 C366 733.68 366 732.36 366 731 C365.34 731 364.68 731 364 731 C363.8453125 730.195625 363.8453125 730.195625 363.6875 729.375 C362.81907303 726.37497956 361.44379704 723.7620465 360 721 C359.34 721 358.68 721 358 721 C357.88785156 720.44828125 357.77570312 719.8965625 357.66015625 719.328125 C356.88639227 716.59934789 355.73182306 714.27227057 354.4375 711.75 C353.98246094 710.85796875 353.52742188 709.9659375 353.05859375 709.046875 C352.70925781 708.37140625 352.35992188 707.6959375 352 707 C351.34 707 350.68 707 350 707 C349.8453125 706.195625 349.8453125 706.195625 349.6875 705.375 C348.81907303 702.37497956 347.44379704 699.7620465 346 697 C345.34 697 344.68 697 344 697 C344 695.68 344 694.36 344 693 C343.34 693 342.68 693 342 693 C341.8453125 692.195625 341.8453125 692.195625 341.6875 691.375 C340.81907303 688.37497956 339.44379704 685.7620465 338 683 C337.34 683 336.68 683 336 683 C336 681.68 336 680.36 336 679 C335.34 679 334.68 679 334 679 C333.8453125 678.195625 333.8453125 678.195625 333.6875 677.375 C332.81907303 674.37497956 331.44379704 671.7620465 330 669 C329.34 669 328.68 669 328 669 C327.88785156 668.44828125 327.77570312 667.8965625 327.66015625 667.328125 C326.88639227 664.59934789 325.73182306 662.27227057 324.4375 659.75 C323.98246094 658.85796875 323.52742188 657.9659375 323.05859375 657.046875 C322.70925781 656.37140625 322.35992188 655.6959375 322 655 C321.34 655 320.68 655 320 655 C319.8453125 654.195625 319.8453125 654.195625 319.6875 653.375 C318.81907303 650.37497956 317.44379704 647.7620465 316 645 C315.34 645 314.68 645 314 645 C314 643.68 314 642.36 314 641 C313.34 641 312.68 641 312 641 C311.8453125 640.195625 311.8453125 640.195625 311.6875 639.375 C310.81907303 636.37497956 309.44379704 633.7620465 308 631 C307.34 631 306.68 631 306 631 C306 629.68 306 628.36 306 627 C305.34 627 304.68 627 304 627 C303.8453125 626.195625 303.8453125 626.195625 303.6875 625.375 C302.81907303 622.37497956 301.44379704 619.7620465 300 617 C299.34 617 298.68 617 298 617 C297.88785156 616.44828125 297.77570312 615.8965625 297.66015625 615.328125 C296.88639227 612.59934789 295.73182306 610.27227057 294.4375 607.75 C293.98246094 606.85796875 293.52742188 605.9659375 293.05859375 605.046875 C292.53458984 604.03367187 292.53458984 604.03367187 292 603 C291.34 603 290.68 603 290 603 C289.8453125 602.195625 289.8453125 602.195625 289.6875 601.375 C288.81907303 598.37497956 287.44379704 595.7620465 286 593 C285.34 593 284.68 593 284 593 C284 591.68 284 590.36 284 589 C283.34 589 282.68 589 282 589 C281.8453125 588.195625 281.8453125 588.195625 281.6875 587.375 C280.81907303 584.37497956 279.44379704 581.7620465 278 579 C277.34 579 276.68 579 276 579 C276 577.68 276 576.36 276 575 C275.34 575 274.68 575 274 575 C273.8453125 574.195625 273.8453125 574.195625 273.6875 573.375 C272.81907303 570.37497956 271.44379704 567.7620465 270 565 C269.34 565 268.68 565 268 565 C267.88785156 564.44828125 267.77570312 563.8965625 267.66015625 563.328125 C266.88639227 560.59934789 265.73182306 558.27227057 264.4375 555.75 C263.98246094 554.85796875 263.52742188 553.9659375 263.05859375 553.046875 C262.53458984 552.03367187 262.53458984 552.03367187 262 551 C261.34 551 260.68 551 260 551 C259.8453125 550.195625 259.8453125 550.195625 259.6875 549.375 C258.81907303 546.37497956 257.44379704 543.7620465 256 541 C255.34 541 254.68 541 254 541 C254 539.68 254 538.36 254 537 C253.34 537 252.68 537 252 537 C251.8453125 536.195625 251.8453125 536.195625 251.6875 535.375 C250.81907303 532.37497956 249.44379704 529.7620465 248 527 C247.34 527 246.68 527 246 527 C245.88785156 526.44828125 245.77570312 525.8965625 245.66015625 525.328125 C244.88639227 522.59934789 243.73182306 520.27227057 242.4375 517.75 C241.98246094 516.85796875 241.52742188 515.9659375 241.05859375 515.046875 C240.53458984 514.03367187 240.53458984 514.03367187 240 513 C239.34 513 238.68 513 238 513 C237.88785156 512.44828125 237.77570312 511.8965625 237.66015625 511.328125 C236.88639227 508.59934789 235.73182306 506.27227057 234.4375 503.75 C233.98246094 502.85796875 233.52742188 501.9659375 233.05859375 501.046875 C232.53458984 500.03367187 232.53458984 500.03367187 232 499 C231.34 499 230.68 499 230 499 C229.8453125 498.195625 229.8453125 498.195625 229.6875 497.375 C228.81907303 494.37497956 227.44379704 491.7620465 226 489 C225.34 489 224.68 489 224 489 C224 487.68 224 486.36 224 485 C223.34 485 222.68 485 222 485 C221.8453125 484.195625 221.8453125 484.195625 221.6875 483.375 C220.81907303 480.37497956 219.44379704 477.7620465 218 475 C217.34 475 216.68 475 216 475 C215.88785156 474.44828125 215.77570312 473.8965625 215.66015625 473.328125 C214.88639227 470.59934789 213.73182306 468.27227057 212.4375 465.75 C211.98246094 464.85796875 211.52742188 463.9659375 211.05859375 463.046875 C210.53458984 462.03367187 210.53458984 462.03367187 210 461 C209.34 461 208.68 461 208 461 C207.88785156 460.44828125 207.77570312 459.8965625 207.66015625 459.328125 C206.88639227 456.59934789 205.73182306 454.27227057 204.4375 451.75 C203.98246094 450.85796875 203.52742188 449.9659375 203.05859375 449.046875 C202.53458984 448.03367187 202.53458984 448.03367187 202 447 C201.34 447 200.68 447 200 447 C199.8453125 446.195625 199.8453125 446.195625 199.6875 445.375 C198.81907303 442.37497956 197.44379704 439.7620465 196 437 C195.34 437 194.68 437 194 437 C194 435.68 194 434.36 194 433 C193.34 433 192.68 433 192 433 C191.8453125 432.195625 191.8453125 432.195625 191.6875 431.375 C190.81907303 428.37497956 189.44379704 425.7620465 188 423 C187.34 423 186.68 423 186 423 C185.88785156 422.44828125 185.77570312 421.8965625 185.66015625 421.328125 C184.88639227 418.59934789 183.73182306 416.27227057 182.4375 413.75 C181.98246094 412.85796875 181.52742188 411.9659375 181.05859375 411.046875 C180.53458984 410.03367187 180.53458984 410.03367187 180 409 C179.34 409 178.68 409 178 409 C177.88785156 408.44828125 177.77570312 407.8965625 177.66015625 407.328125 C176.88639227 404.59934789 175.73182306 402.27227057 174.4375 399.75 C173.98246094 398.85796875 173.52742188 397.9659375 173.05859375 397.046875 C172.53458984 396.03367187 172.53458984 396.03367187 172 395 C171.34 395 170.68 395 170 395 C169.8453125 394.195625 169.8453125 394.195625 169.6875 393.375 C168.81907303 390.37497956 167.44379704 387.7620465 166 385 C165.34 385 164.68 385 164 385 C164 383.68 164 382.36 164 381 C163.34 381 162.68 381 162 381 C161.8453125 380.195625 161.8453125 380.195625 161.6875 379.375 C160.81907303 376.37497956 159.44379704 373.7620465 158 371 C157.34 371 156.68 371 156 371 C155.88785156 370.44828125 155.77570312 369.8965625 155.66015625 369.328125 C154.88639227 366.59934789 153.73182306 364.27227057 152.4375 361.75 C151.98246094 360.85796875 151.52742188 359.9659375 151.05859375 359.046875 C150.53458984 358.03367187 150.53458984 358.03367187 150 357 C149.34 357 148.68 357 148 357 C147.88785156 356.44828125 147.77570312 355.8965625 147.66015625 355.328125 C146.88639227 352.59934789 145.73182306 350.27227057 144.4375 347.75 C143.98246094 346.85796875 143.52742188 345.9659375 143.05859375 345.046875 C142.53458984 344.03367187 142.53458984 344.03367187 142 343 C141.34 343 140.68 343 140 343 C139.8453125 342.195625 139.8453125 342.195625 139.6875 341.375 C138.81907303 338.37497956 137.44379704 335.7620465 136 333 C135.34 333 134.68 333 134 333 C134 331.68 134 330.36 134 329 C133.34 329 132.68 329 132 329 C131.8453125 328.195625 131.8453125 328.195625 131.6875 327.375 C130.81907303 324.37497956 129.44379704 321.7620465 128 319 C127.34 319 126.68 319 126 319 C125.88785156 318.44828125 125.77570312 317.8965625 125.66015625 317.328125 C124.88639227 314.59934789 123.73182306 312.27227057 122.4375 309.75 C121.98246094 308.85796875 121.52742188 307.9659375 121.05859375 307.046875 C120.53458984 306.03367187 120.53458984 306.03367187 120 305 C119.34 305 118.68 305 118 305 C117.88785156 304.44828125 117.77570312 303.8965625 117.66015625 303.328125 C116.88639227 300.59934789 115.73182306 298.27227057 114.4375 295.75 C113.98246094 294.85796875 113.52742188 293.9659375 113.05859375 293.046875 C112.53458984 292.03367187 112.53458984 292.03367187 112 291 C111.34 291 110.68 291 110 291 C109.8453125 290.195625 109.8453125 290.195625 109.6875 289.375 C108.81907303 286.37497956 107.44379704 283.7620465 106 281 C105.34 281 104.68 281 104 281 C104 279.68 104 278.36 104 277 C103.34 277 102.68 277 102 277 C101.8453125 276.195625 101.8453125 276.195625 101.6875 275.375 C100.81907303 272.37497956 99.44379704 269.7620465 98 267 C97.34 267 96.68 267 96 267 C95.88785156 266.44828125 95.77570312 265.8965625 95.66015625 265.328125 C94.88639227 262.59934789 93.73182306 260.27227057 92.4375 257.75 C91.98246094 256.85796875 91.52742188 255.9659375 91.05859375 255.046875 C90.53458984 254.03367187 90.53458984 254.03367187 90 253 C89.34 253 88.68 253 88 253 C87.88785156 252.44828125 87.77570312 251.8965625 87.66015625 251.328125 C86.88639227 248.59934789 85.73182306 246.27227057 84.4375 243.75 C83.98246094 242.85796875 83.52742187 241.9659375 83.05859375 241.046875 C82.53458984 240.03367187 82.53458984 240.03367187 82 239 C81.34 239 80.68 239 80 239 C79.8453125 238.195625 79.8453125 238.195625 79.6875 237.375 C78.81907303 234.37497956 77.44379704 231.7620465 76 229 C75.34 229 74.68 229 74 229 C74 227.68 74 226.36 74 225 C73.34 225 72.68 225 72 225 C71.8453125 224.195625 71.8453125 224.195625 71.6875 223.375 C70.81907303 220.37497956 69.44379704 217.7620465 68 215 C67.34 215 66.68 215 66 215 C65.88785156 214.44828125 65.77570312 213.8965625 65.66015625 213.328125 C64.88639227 210.59934789 63.73182306 208.27227057 62.4375 205.75 C61.98246094 204.85796875 61.52742187 203.9659375 61.05859375 203.046875 C60.53458984 202.03367187 60.53458984 202.03367187 60 201 C59.34 201 58.68 201 58 201 C57.88785156 200.44828125 57.77570312 199.8965625 57.66015625 199.328125 C56.88639227 196.59934789 55.73182306 194.27227057 54.4375 191.75 C53.98246094 190.85796875 53.52742187 189.9659375 53.05859375 189.046875 C52.53458984 188.03367187 52.53458984 188.03367187 52 187 C51.34 187 50.68 187 50 187 C49.8453125 186.195625 49.8453125 186.195625 49.6875 185.375 C48.81907303 182.37497956 47.44379704 179.7620465 46 177 C45.34 177 44.68 177 44 177 C44 175.68 44 174.36 44 173 C43.34 173 42.68 173 42 173 C41.8453125 172.195625 41.8453125 172.195625 41.6875 171.375 C40.81907303 168.37497956 39.44379704 165.7620465 38 163 C37.34 163 36.68 163 36 163 C35.88785156 162.44828125 35.77570312 161.8965625 35.66015625 161.328125 C34.88639227 158.59934789 33.73182306 156.27227057 32.4375 153.75 C31.98246094 152.85796875 31.52742187 151.9659375 31.05859375 151.046875 C30.53458984 150.03367187 30.53458984 150.03367187 30 149 C29.34 149 28.68 149 28 149 C27.88785156 148.44828125 27.77570312 147.8965625 27.66015625 147.328125 C26.88639227 144.59934789 25.73182306 142.27227057 24.4375 139.75 C23.98246094 138.85796875 23.52742187 137.9659375 23.05859375 137.046875 C22.53458984 136.03367187 22.53458984 136.03367187 22 135 C21.34 135 20.68 135 20 135 C19.8453125 134.195625 19.8453125 134.195625 19.6875 133.375 C18.81907303 130.37497956 17.44379704 127.7620465 16 125 C15.34 125 14.68 125 14 125 C14 123.68 14 122.36 14 121 C13.34 121 12.68 121 12 121 C11.8453125 120.195625 11.8453125 120.195625 11.6875 119.375 C10.81907303 116.37497956 9.44379704 113.7620465 8 111 C7.34 111 6.68 111 6 111 C5.855625 110.38125 5.71125 109.7625 5.5625 109.125 C5.06847775 106.96741678 5.06847775 106.96741678 4 105 C3.34 105 2.68 105 2 105 Z " fill="#000000" transform="translate(934,134)"/>
<path d="M0 0 C3.44376991 3.33941325 4.99303937 7.60348374 5.13061523 12.35009766 C4.94674544 14.8564934 4.65742967 17.32325753 4.3125 19.8125 C4.10874998 21.48560109 3.90562878 23.15877887 3.703125 24.83203125 C3.59653564 25.68273193 3.48994629 26.53343262 3.38012695 27.40991211 C2.2446998 36.66874887 1.87613708 45.83980974 1.87719727 55.15991211 C1.87501391 57.29886901 1.85679258 59.43730574 1.83789062 61.57617188 C1.78840037 73.36351013 2.56732353 85.12682715 6.375 96.375 C6.62008301 97.10340088 6.86516602 97.83180176 7.11767578 98.58227539 C13.48529088 116.25561862 23.77950548 133.54303417 36.625 147.25 C37.09333252 147.75104248 37.56166504 148.25208496 38.04418945 148.76831055 C43.38063274 154.45236293 48.81301376 159.84948109 54.71875 164.9375 C57.59272363 167.46659679 60.3875092 170.07734615 63.1875 172.6875 C68.358464 177.49586823 73.65286129 182.13305641 79.03491211 186.703125 C82.49329945 189.64273006 85.8947727 192.62957132 89.25 195.6875 C92.5633308 198.69814479 95.95191929 201.56565178 99.4375 204.375 C104.57430587 208.53094477 109.42603905 212.93386847 114.26953125 217.421875 C118.76845927 221.57473163 123.33415133 225.62437555 128.125 229.4375 C131.14336787 232.07054431 133.63249123 234.86449626 136.21875 237.91015625 C138.03757725 239.9717507 139.94935964 241.85258827 141.9375 243.75 C146.4039214 248.17372139 150.05613533 253.06898631 153.72753906 258.16015625 C155.21666526 260.21247063 156.72888216 262.24670505 158.2421875 264.28125 C164.84686737 273.21383243 170.93474931 282.12137117 176.0625 292 C176.91521484 293.62615234 176.91521484 293.62615234 177.78515625 295.28515625 C187.95215338 315.82758554 193.6443224 337.42562751 197.0625 360 C197.30965943 361.48571643 197.55702427 362.97139872 197.8046875 364.45703125 C203.80644367 405.68827396 195.28224024 447.51031355 178.0625 485 C177.64564941 485.91604004 177.22879883 486.83208008 176.79931641 487.77587891 C168.8218888 505.106583 158.26179959 518.29800067 145.05224609 531.93847656 C143.07802066 533.98391945 141.12687772 536.04970295 139.17578125 538.1171875 C129.9736641 547.73653779 120.1556651 555.65788518 109.0625 563 C108.36592285 563.46132324 107.6693457 563.92264648 106.95166016 564.39794922 C75.93094195 584.72745384 75.93094195 584.72745384 61.0625 583 C57.98884214 581.19196596 56.63230268 580.13960536 55.0625 577 C54.00546867 570.04232541 55.32050078 565.35732981 59.1640625 559.546875 C61.14781279 556.88554745 63.2354085 554.34998044 65.375 551.8125 C82.12662559 531.79501127 89.63346168 509.7811984 89.45361328 483.87841797 C89.4375637 481.1358842 89.45352603 478.39483243 89.47265625 475.65234375 C89.48472515 464.71127269 88.42905802 454.68149162 86.0625 444 C85.71634708 442.00217887 85.37853153 440.00280683 85.0625 438 C84.4025 438 83.7425 438 83.0625 438 C82.81113281 438.8765625 82.55976562 439.753125 82.30078125 440.65625 C80.26861471 446.14374071 76.60534173 450.39568428 73.0625 455 C72.62679688 455.59296875 72.19109375 456.1859375 71.7421875 456.796875 C67.2553691 462.63287655 61.06548469 467.65068411 54.0625 470 C48.83957318 470.47481153 45.46528819 469.90183767 41.0625 467 C36.46803189 460.79420184 37.32934152 453.33749773 38.33789062 445.99511719 C38.80610164 443.14341094 39.3250354 440.30208201 39.84521484 437.45947266 C41.03471256 430.72930867 41.74023044 423.99628802 42.3125 417.1875 C42.40450684 416.17453857 42.49651367 415.16157715 42.59130859 414.11791992 C43.17940935 406.63691454 42.83981426 399.45635659 42.0625 392 C41.89838623 390.38460327 41.89838623 390.38460327 41.73095703 388.73657227 C38.72059018 361.23685067 31.40316298 331.34066298 11.0625 311 C10.98322266 311.56170898 10.90394531 312.12341797 10.82226562 312.70214844 C7.68466442 334.06730579 2.47684032 351.48008201 -12.9375 367 C-14.17796211 368.29082275 -15.41751575 369.58251902 -16.65625 370.875 C-22.89179819 377.30533453 -29.27702052 383.33261203 -36.31640625 388.88671875 C-40.15550187 391.98202536 -43.75344463 395.323811 -47.3828125 398.66015625 C-49.56447815 400.65834848 -51.76761309 402.62148889 -54 404.5625 C-58.69685329 408.65299723 -63.34053473 412.79749379 -67.9375 417 C-68.53304687 417.52851562 -69.12859375 418.05703125 -69.7421875 418.6015625 C-78.52853354 426.79934948 -85.44442342 437.03226665 -90.375 447.9375 C-90.68042725 448.60305908 -90.98585449 449.26861816 -91.30053711 449.9543457 C-96.59140443 462.37479204 -98.61304134 474.82236963 -98.45898438 488.22680664 C-98.43753182 490.43422588 -98.45893318 492.63838094 -98.484375 494.84570312 C-98.52217262 514.99183625 -92.7658767 530.28685798 -80.74633789 546.31811523 C-69.98192313 560.75919226 -69.98192313 560.75919226 -70.52734375 569.765625 C-71.16509708 573.23986219 -72.18084735 574.79467788 -74.9375 577 C-80.50504489 579.30381168 -84.28385435 579.27765976 -89.93359375 577.28515625 C-103.01379674 571.6890746 -114.53607061 564.20160877 -125.83276367 555.6015625 C-127.21309721 554.5512217 -128.60368129 553.51418873 -130.00512695 552.4921875 C-137.31330803 547.04795538 -143.69654033 540.68289944 -150.125 534.25 C-151.02032944 533.35527481 -151.02032944 533.35527481 -151.93374634 532.44247437 C-166.1152329 518.20580229 -177.87734071 503.50572398 -185.9375 485 C-186.62175049 483.47270264 -186.62175049 483.47270264 -187.31982422 481.91455078 C-194.62403736 465.52523861 -200.22156663 449.38191195 -204.26318359 431.84814453 C-204.84800103 429.37802135 -205.48576429 426.93842761 -206.17578125 424.49609375 C-208.94439678 414.6210012 -209.98520881 404.81414965 -210.7331543 394.60791016 C-210.86596236 392.91298096 -211.01992662 391.21953015 -211.19848633 389.52880859 C-212.21083611 379.50041863 -212.19540998 369.43793958 -212.23266602 359.36816406 C-212.24412667 357.22389089 -212.26448326 355.0796449 -212.29418945 352.93554688 C-212.49136981 338.6328108 -211.45620967 325.28256407 -208.43130493 311.2923584 C-207.77870054 308.26281564 -207.20493206 305.21921887 -206.62109375 302.17578125 C-203.15059292 285.48207463 -198.23319467 269.37502558 -192.93980408 253.18589783 C-191.81895868 249.75415398 -190.72194144 246.31836634 -189.67822266 242.86230469 C-187.06419958 234.22074278 -184.03526872 225.91901585 -180.4375 217.625 C-179.74720703 215.99884766 -179.74720703 215.99884766 -179.04296875 214.33984375 C-170.359963 194.06319087 -170.359963 194.06319087 -163.9375 190 C-160.01247403 188.66382095 -158.2432632 188.90671631 -154.25 190.125 C-150.68234451 192.14442764 -149.53023906 193.28360886 -147.9375 197 C-146.67082078 201.66254976 -146.8616001 206.2209328 -146.9453125 211.0078125 C-146.96286671 212.81900445 -146.9797712 214.63020278 -146.99609375 216.44140625 C-147.02666333 219.26011519 -147.0617217 222.0784902 -147.10888672 224.89697266 C-147.57487119 254.35870998 -142.65907306 282.12155643 -122.9375 305 C-122.2775 305.33 -121.6175 305.66 -120.9375 306 C-121.2675 305.34 -121.5975 304.68 -121.9375 304 C-122.29439652 301.28672416 -122.60274743 298.5853221 -122.875 295.86328125 C-122.95981628 295.04047668 -123.04463257 294.21767212 -123.13201904 293.36993408 C-123.40615048 290.68465623 -123.6728296 287.99872613 -123.9375 285.3125 C-124.02809692 284.39918915 -124.11869385 283.4858783 -124.21203613 282.54489136 C-125.5763639 268.69946281 -126.69029141 254.91578334 -126.9375 241 C-126.96328125 240.08025391 -126.9890625 239.16050781 -127.015625 238.21289062 C-128.3840142 187.68511937 -119.34294067 133.81113308 -94.9375 89 C-94.60830566 88.38157227 -94.27911133 87.76314453 -93.93994141 87.12597656 C-85.50215472 71.35699816 -75.02656243 56.98515132 -63.9375 43 C-63.46699219 42.40413086 -62.99648438 41.80826172 -62.51171875 41.19433594 C-50.04167782 25.53491135 -22.28013737 -7.58472761 0 0 Z " fill="#000000" transform="translate(948.9375,553)"/>
</svg>
