<?xml version="1.0" encoding="UTF-8"?>
<svg version="1.1" xmlns="http://www.w3.org/2000/svg" width="1851" height="1407">
<path d="M0 0 C7.10070253 4.84138809 8.69603507 10.74648347 10.5 18.75 C10.71503174 19.68521484 10.93006348 20.62042969 11.15161133 21.58398438 C25.02605568 82.90495844 17.05810034 140.98534243 -15.15039062 194.88867188 C-17.50289414 198.84594548 -19.80819045 202.82954519 -22.11303711 206.81469727 C-29.52730177 219.62057343 -37.18122455 232.27599444 -44.89169312 244.90461731 C-47.19151544 248.67165484 -49.48320918 252.4435053 -51.76953125 256.21875 C-58.58096031 267.45955513 -65.49646995 278.62528665 -72.54980469 289.71582031 C-74.47092262 292.74174276 -76.38031862 295.77498192 -78.29003906 298.80810547 C-80.85349882 302.87620465 -83.42689101 306.93800006 -86 311 C-86.57137695 311.90363281 -87.14275391 312.80726563 -87.73144531 313.73828125 C-98.17118271 330.22979511 -108.92957154 346.49328934 -119.79051208 362.70915222 C-123.02383859 367.53741795 -126.24747963 372.37202216 -129.46484375 377.2109375 C-137.88401766 389.87148816 -146.30303982 402.52771184 -155 415 C-155.52722656 415.75861328 -156.05445313 416.51722656 -156.59765625 417.29882812 C-163.39199504 427.07246126 -170.25632896 436.78992846 -177.24780273 446.42358398 C-180.85502743 451.39810296 -184.40862286 456.40718441 -187.9375 461.4375 C-198.94164224 477.08441131 -210.47183934 492.33364256 -222.10107422 507.51904297 C-223.87355774 509.83480249 -225.64261902 512.1531203 -227.41015625 514.47265625 C-239.37751976 530.17048121 -251.48522295 545.7339281 -264 561 C-265.23556641 562.51207031 -265.23556641 562.51207031 -266.49609375 564.0546875 C-267.96228922 565.84868058 -269.42967413 567.64170244 -270.8984375 569.43359375 C-272.32316165 571.17345205 -273.74494709 572.91572016 -275.1640625 574.66015625 C-279.17125457 579.58064828 -283.21443798 584.46761531 -287.3125 589.3125 C-287.77124512 589.85519531 -288.22999023 590.39789062 -288.70263672 590.95703125 C-291.10737987 593.79377914 -293.52981804 596.61294888 -295.98046875 599.41015625 C-315.49998257 621.74662614 -329.20533015 645.30276979 -337 674 C-337.35191406 675.17433594 -337.70382812 676.34867188 -338.06640625 677.55859375 C-348.0728483 714.44426506 -338.29346182 757.00571885 -320 789.5625 C-313.78031817 799.96969039 -306.29703084 809.19170846 -298 818 C-297.3503125 818.72574219 -296.700625 819.45148437 -296.03125 820.19921875 C-273.09087725 844.77188725 -240.51398953 853.74754877 -209.05322266 861.63983154 C-205.34306824 862.57168231 -201.63617206 863.51620372 -197.92901611 864.4598999 C-195.10622532 865.17842957 -192.28313713 865.89577923 -189.45996094 866.61279297 C-188.54839233 866.84440125 -187.63682373 867.07600952 -186.69763184 867.31463623 C-184.93441047 867.76260249 -183.17114725 868.21040408 -181.40783691 868.65802002 C-176.65752548 869.86501348 -171.91001665 871.08204054 -167.1663208 872.31478882 C-165.74634411 872.6819952 -164.32542802 873.04559214 -162.90350342 873.40518188 C-141.66442705 878.7805352 -123.86934034 888.62224771 -111.5546875 907.359375 C-103.39660763 921.21581216 -99.68285913 934.92869561 -99.5625 950.875 C-99.55234863 951.82552246 -99.54219727 952.77604492 -99.53173828 953.75537109 C-99.64116615 962.59128622 -101.02684117 971.02911926 -107.34375 977.59375 C-112.19463592 981.71242672 -117.34925778 982.56292488 -123.5078125 982.34765625 C-128.96623697 981.58621459 -133.19562343 979.20127725 -136.875 975.125 C-141.41635122 968.44654233 -141.08916511 962.70550164 -140.8125 954.9375 C-140.60980994 942.02817 -142.68645151 932.94797522 -151.44921875 923 C-158.49557157 917.47514143 -166.77679083 914.92958792 -175.33984375 912.765625 C-176.4079277 912.48624588 -177.47601166 912.20686676 -178.57646179 911.91902161 C-182.027549 911.01900609 -185.48243423 910.13460511 -188.9375 909.25 C-191.32954396 908.62794606 -193.72130675 908.00480996 -196.11279297 907.38061523 C-206.59837102 904.65014596 -217.09515117 901.96560871 -227.60546875 899.33203125 C-248.44148262 894.10484381 -268.03476647 888.27608676 -287 878 C-288.06863281 877.42378906 -289.13726563 876.84757812 -290.23828125 876.25390625 C-315.02948185 862.3309622 -335.57436143 841.6907205 -351 818 C-351.43940918 817.32630371 -351.87881836 816.65260742 -352.33154297 815.95849609 C-380.78272544 771.62808493 -388.35725024 716.53371156 -377.71533203 665.38061523 C-370.76425667 634.48735216 -355.86714491 605.75858569 -335 582 C-333.9588743 580.80013917 -332.91857115 579.59956432 -331.87890625 578.3984375 C-330.18603323 576.44424851 -328.49215774 574.49099251 -326.79443359 572.54101562 C-322.92167406 568.08852873 -319.14132954 563.57328143 -315.42578125 558.98828125 C-312.98108947 555.97670442 -310.51666014 552.98232073 -308.04760742 549.99072266 C-293.00632668 531.77371999 -293.00632668 531.77371999 -278.4375 513.1796875 C-275.95197559 509.92492925 -273.41481956 506.71244027 -270.875 503.5 C-254.57065749 482.8176668 -238.98723964 461.59729784 -223.60449219 440.22509766 C-222.00361537 438.00501377 -220.39724569 435.78901451 -218.7890625 433.57421875 C-212.45037461 424.83812043 -206.20138253 416.04531652 -200.02856445 407.19116211 C-197.08692158 402.97333808 -194.13410924 398.76585617 -191.12280273 394.59741211 C-187.52695119 389.59468285 -184.00699817 384.56159187 -180.609375 379.421875 C-176.44950444 373.15597304 -172.24883161 366.91859082 -168.03125 360.69140625 C-166.78772867 358.8535371 -165.5442395 357.0156462 -164.30078125 355.17773438 C-162.40029779 352.36910076 -160.49900447 349.56103249 -158.59521484 346.75463867 C-151.56039285 336.38176374 -144.6234263 325.97726627 -138.04296875 315.30932617 C-135.66701818 311.46061562 -133.22416005 307.6609181 -130.75 303.875 C-110.92904237 273.36718308 -91.80167195 242.42825929 -73.12109375 211.2109375 C-70.89033369 207.48321061 -68.65216002 203.76003764 -66.41015625 200.0390625 C-63.23339698 194.7648249 -60.06810175 189.48386021 -56.91113281 184.19775391 C-55.63693142 182.06572914 -54.36023652 179.93519265 -53.08105469 177.80615234 C-45.90579205 165.84553863 -38.96184605 154.06339131 -34 141 C-33.54367187 139.79859375 -33.08734375 138.5971875 -32.6171875 137.359375 C-20.54293348 103.37794154 -19.76714936 65.24548802 -29.35620117 30.58276367 C-31.45741761 22.80982419 -32.35276819 15.37660297 -29.9375 7.5625 C-22.15935365 -2.72472582 -11.7683623 -6.33681047 0 0 Z " fill="#050505" transform="translate(1009,214)"/>
<path d="M0 0 C22.86713165 12.72445229 39.67388415 54.7101132 46.625 78.203125 C57.40583586 116.63277121 54.67765985 157.12983856 35.52636719 192.40429688 C30.01165017 202.11273225 23.54429514 211.29970771 15.6875 219.265625 C15.0275 219.265625 14.3675 219.265625 13.6875 219.265625 C13.46578125 219.83796875 13.2440625 220.4103125 13.015625 221 C4.99945542 234.67464223 -19.42541604 243.26874862 -33.52783203 246.98144531 C-61.51778335 254.11089973 -91.93756795 250.67444688 -117.1484375 236.25 C-125.35940253 231.10040712 -133.50586848 225.74196108 -140.078125 218.54296875 C-141.30667993 217.13003147 -141.30667993 217.13003147 -143.3125 216.265625 C-143.3125 215.605625 -143.3125 214.945625 -143.3125 214.265625 C-144.18068359 213.87890625 -144.18068359 213.87890625 -145.06640625 213.484375 C-147.50727218 212.15993992 -149.22472801 210.6626168 -151.25 208.765625 C-177.92920296 184.6584367 -208.52600155 167.19425869 -245.28515625 169.02880859 C-262.87419395 170.40472525 -280.30340492 176.62080616 -297.203125 181.4309082 C-310.85890091 185.29972678 -323.4780318 187.62559396 -337.75 187.640625 C-338.97009766 187.66511719 -340.19019531 187.68960937 -341.44726562 187.71484375 C-354.49417089 187.75646067 -367.21116465 184.54457857 -377.12109375 175.640625 C-384.13821707 168.0810308 -386.12176718 160.28810369 -385.82421875 150.05859375 C-384.74048713 142.02574334 -380.71830393 134.3806334 -374.66796875 128.91796875 C-340.6816237 105.07680133 -288.98009604 108.75205774 -250.2578125 115.46069336 C-231.24808018 119.0265981 -212.99974402 124.45915875 -195.3125 132.265625 C-194.60399902 132.57048828 -193.89549805 132.87535156 -193.16552734 133.18945312 C-175.07877755 141.0102938 -157.96020202 151.30661043 -142.3125 163.265625 C-141.73064941 163.70616211 -141.14879883 164.14669922 -140.54931641 164.60058594 C-132.41930281 170.77755501 -124.79202943 177.31181329 -117.3125 184.265625 C-99.9761076 200.16276973 -81.21043645 210.37525409 -57.28515625 209.64453125 C-39.06311087 207.90653872 -22.25646076 200.37565282 -9.9140625 186.5859375 C7.22578511 165.00025912 14.12963709 137.71748568 11.01855469 110.52319336 C7.42669406 83.31670328 -4.56950541 57.82631963 -21.3125 36.265625 C-22.50193709 34.68374634 -23.68975345 33.10064592 -24.875 31.515625 C-25.33003906 30.92265625 -25.78507812 30.3296875 -26.25390625 29.71875 C-29.83894004 24.79759661 -28.77885606 18.0626899 -28.3125 12.265625 C-26.56625661 6.58084354 -22.49356798 3.20804704 -17.546875 0.1875 C-12.25849563 -1.99441876 -5.40226051 -1.71558273 0 0 Z " fill="#050505" transform="translate(1171.3125,851.734375)"/>
<path d="M0 0 C0.33 0.66 0.66 1.32 1 2 C-0.3256415 5.27921845 -1.31835419 7.49363454 -4.1875 9.625 C-4.785625 10.07875 -5.38375 10.5325 -6 11 C-6 12.32 -6 13.64 -6 15 C-7.66279327 16.0064275 -9.32983484 17.00585407 -11 18 C-12.10636395 20.39068734 -12.10636395 20.39068734 -13 23 C-14.31321858 24.6825613 -15.64613064 26.34997172 -17 28 C-17.28875 28.70125 -17.5775 29.4025 -17.875 30.125 C-19.5743723 32.95728716 -22.0459637 33.71563639 -25 35 C-23.61418757 32.04183144 -22.0046712 29.49596344 -20.05859375 26.875 C-19.47867676 26.0910083 -18.89875977 25.3070166 -18.30126953 24.49926758 C-17.68622559 23.67450928 -17.07118164 22.84975098 -16.4375 22 C-15.81214355 21.15655029 -15.18678711 20.31310059 -14.54248047 19.4440918 C-12.6988088 16.9598545 -10.85053186 14.47913008 -9 12 C-8.49259277 11.32018066 -7.98518555 10.64036133 -7.46240234 9.93994141 C-4.98250163 6.62090439 -2.49540647 3.30740382 0 0 Z " fill="#404040" transform="translate(783,658)"/>
<path d="M0 0 C0 0.99 0 1.98 0 3 C0.66 3.33 1.32 3.66 2 4 C1.67 4.99 1.34 5.98 1 7 C-0.98 7.33 -2.96 7.66 -5 8 C-5.04125 8.721875 -5.0825 9.44375 -5.125 10.1875 C-6.38352165 14.23274817 -8.63589117 15.49481257 -12 18 C-12 14.52901466 -11.5023906 14.01853855 -9.375 11.42578125 C-8.83359375 10.75869141 -8.2921875 10.09160156 -7.734375 9.40429688 C-7.16203125 8.71400391 -6.5896875 8.02371094 -6 7.3125 C-5.14148438 6.2596582 -5.14148438 6.2596582 -4.265625 5.18554688 C-2.85016172 3.45160436 -1.4281647 1.72348333 0 0 Z " fill="#393939" transform="translate(741,714)"/>
<path d="M0 0 C0.33 0.66 0.66 1.32 1 2 C0.67 2.78375 0.34 3.5675 0 4.375 C-1.11986243 7.31463887 -0.77481831 8.09443135 0 11 C-0.99 12.485 -0.99 12.485 -2 14 C-4.625 14.1875 -4.625 14.1875 -7 14 C-7 14.99 -7 15.98 -7 17 C-7.66 17 -8.32 17 -9 17 C-7.51481201 12.95698825 -5.57122002 9.38853744 -3.375 5.6875 C-2.74335937 4.61886719 -2.11171875 3.55023438 -1.4609375 2.44921875 C-0.97882812 1.64097656 -0.49671875 0.83273437 0 0 Z " fill="#323232" transform="translate(956,392)"/>
<path d="M0 0 C2 2 2 2 2.22705078 3.97119141 C2.21657715 4.75671387 2.20610352 5.54223633 2.1953125 6.3515625 C2.18886719 7.20234375 2.18242188 8.053125 2.17578125 8.9296875 C2.15902344 9.81914063 2.14226563 10.70859375 2.125 11.625 C2.11597656 12.5221875 2.10695313 13.419375 2.09765625 14.34375 C2.0740497 16.56276586 2.0411231 18.78125077 2 21 C2.66 21 3.32 21 4 21 C3.34 23.97 2.68 26.94 2 30 C-0.03627575 25.92744851 -0.23848858 24.32583525 -0.1953125 19.921875 C-0.18886719 18.76171875 -0.18242188 17.6015625 -0.17578125 16.40625 C-0.15902344 15.1996875 -0.14226563 13.993125 -0.125 12.75 C-0.11597656 11.52796875 -0.10695313 10.3059375 -0.09765625 9.046875 C-0.07409513 6.03105218 -0.04119706 3.01562508 0 0 Z " fill="#404040" transform="translate(868,1154)"/>
<path d="M0 0 C0.33 0 0.66 0 1 0 C0.91253716 1.43861294 0.80434652 2.87597508 0.6875 4.3125 C0.62949219 5.11300781 0.57148437 5.91351563 0.51171875 6.73828125 C-0.08206694 9.36272334 -0.95780294 10.30820672 -3 12 C-3.66 11.67 -4.32 11.34 -5 11 C-5 11.66 -5 12.32 -5 13 C-5.66 13 -6.32 13 -7 13 C-5.37621488 8.27626146 -2.89006982 4.05818166 0 0 Z " fill="#242424" transform="translate(920,452)"/>
<path d="M0 0 C0.66 0.33 1.32 0.66 2 1 C1.01 2.32 0.02 3.64 -1 5 C-1.66 4.67 -2.32 4.34 -3 4 C-3.66 5.32 -4.32 6.64 -5 8 C-5.66 8 -6.32 8 -7 8 C-6.67 8.99 -6.34 9.98 -6 11 C-7.98 11.99 -9.96 12.98 -12 14 C-10.28842825 7.7242369 -5.24692437 3.49794958 0 0 Z " fill="#3C3C3C" transform="translate(802,977)"/>
<path d="M0 0 C2.99220268 1.36370299 5.29026529 2.94908083 7.75 5.125 C8.67039062 5.93324219 8.67039062 5.93324219 9.609375 6.7578125 C10.06828125 7.16773438 10.5271875 7.57765625 11 8 C10.01 8.495 10.01 8.495 9 9 C8.21625 8.525625 7.4325 8.05125 6.625 7.5625 C3.93627764 5.65901076 3.93627764 5.65901076 0 6 C0 4 0 2 0 0 Z " fill="#212121" transform="translate(1039,1024)"/>
<path d="M0 0 C1 2 1 2 0.25 5.4375 C-1.42780749 10.21925134 -1.42780749 10.21925134 -4 12 C-6.1875 12.6875 -6.1875 12.6875 -8 13 C-6.53181332 9.89257577 -4.79975 7.09528261 -2.875 4.25 C-2.33617187 3.45078125 -1.79734375 2.6515625 -1.2421875 1.828125 C-0.62730469 0.92320312 -0.62730469 0.92320312 0 0 Z " fill="#353535" transform="translate(841,575)"/>
<path d="M0 0 C1.4540625 0.7425 1.4540625 0.7425 2.9375 1.5 C1.9475 1.995 1.9475 1.995 0.9375 2.5 C0.2775 2.17 -0.3825 1.84 -1.0625 1.5 C-3.94620333 1.42805131 -6.80489664 1.40708292 -9.6875 1.4375 C-10.89019531 1.44426758 -10.89019531 1.44426758 -12.1171875 1.45117188 C-14.09899006 1.46296832 -16.08075433 1.48090395 -18.0625 1.5 C-13.41948439 -3.14301561 -5.6911823 -2.45729256 0 0 Z " fill="#434343" transform="translate(1006.0625,212.5)"/>
<path d="M0 0 C0.33 0 0.66 0 1 0 C1.25 6.625 1.25 6.625 -1 10 C-0.34 10 0.32 10 1 10 C0.67 10.99 0.34 11.98 0 13 C-2.5625 14.1875 -2.5625 14.1875 -5 15 C-1.92482916 4.44191344 -1.92482916 4.44191344 0 0 Z " fill="#434343" transform="translate(643,844)"/>
<path d="M0 0 C0 4.51910433 -2.27026252 7.49436814 -5 11 C-6.93477503 12.63572315 -8.77360624 13.75736162 -11 15 C-9.3718356 11.24269753 -6.98598083 8.383177 -4.375 5.25 C-3.55773437 4.26515625 -2.74046875 3.2803125 -1.8984375 2.265625 C-1.27195312 1.51796875 -0.64546875 0.7703125 0 0 Z " fill="#474747" transform="translate(723,737)"/>
<path d="M0 0 C1.35439668 2.70879335 1.06501451 5.00933268 1 8 C-0.65 8.33 -2.3 8.66 -4 9 C-4 9.99 -4 10.98 -4 12 C-4.99 12 -5.98 12 -7 12 C-5.44298069 7.32894208 -2.91552627 3.91294315 0 0 Z " fill="#373737" transform="translate(830,591)"/>
<path d="M0 0 C0.66 1.32 1.32 2.64 2 4 C1.525625 4.433125 1.05125 4.86625 0.5625 5.3125 C-1.23686957 7.02309613 -1.23686957 7.02309613 -2 10 C-2.66 10 -3.32 10 -4 10 C-5.34882408 10.63474075 -6.6846659 11.29848848 -8 12 C-6.59023295 8.96147295 -4.91129772 6.4060405 -2.875 3.75 C-2.06675781 2.69039062 -2.06675781 2.69039062 -1.2421875 1.609375 C-0.83226562 1.07828125 -0.42234375 0.5471875 0 0 Z " fill="#393939" transform="translate(757,693)"/>
<path d="M0 0 C0.33 0.66 0.66 1.32 1 2 C0.67 2.66 0.34 3.32 0 4 C0.66 4 1.32 4 2 4 C0.25 8.875 0.25 8.875 -2 10 C-2 9.34 -2 8.68 -2 8 C-2.99 8.33 -3.98 8.66 -5 9 C-3.7508258 5.54074837 -2.32472205 2.85306797 0 0 Z " fill="#2E2E2E" transform="translate(878,519)"/>
<path d="M0 0 C2 3.75 2 3.75 2 6 C0.68 5.67 -0.64 5.34 -2 5 C-1.34 6.32 -0.68 7.64 0 9 C-1.98 9.66 -3.96 10.32 -6 11 C-4.54955729 6.89041233 -2.48889248 3.56741255 0 0 Z " fill="#3F3F3F" transform="translate(895,492)"/>
<path d="M0 0 C0.33 0.66 0.66 1.32 1 2 C-0.89467269 7.12676141 -3.31614016 9.29376987 -8 12 C-6.59023295 8.96147295 -4.91129772 6.4060405 -2.875 3.75 C-2.06675781 2.69039062 -2.06675781 2.69039062 -1.2421875 1.609375 C-0.83226562 1.07828125 -0.42234375 0.5471875 0 0 Z " fill="#494949" transform="translate(783,658)"/>
<path d="M0 0 C0.33 0.66 0.66 1.32 1 2 C0.0625 4.125 0.0625 4.125 -1 6 C-1.66 6 -2.32 6 -3 6 C-3 6.66 -3 7.32 -3 8 C-2.34 8 -1.68 8 -1 8 C-1 8.99 -1 9.98 -1 11 C-1.66 11 -2.32 11 -3 11 C-3 10.34 -3 9.68 -3 9 C-4.98 9.99 -4.98 9.99 -7 11 C-5.22054913 6.95579349 -2.60470327 3.53921513 0 0 Z " fill="#3E3E3E" transform="translate(796,640)"/>
<path d="M0 0 C0.61328125 1.796875 0.61328125 1.796875 1 4 C-0.8125 7.25 -0.8125 7.25 -3 10 C-3.66 10 -4.32 10 -5 10 C-5 10.99 -5 11.98 -5 13 C-5.66 13 -6.32 13 -7 13 C-5.35821735 8.22390502 -2.73453298 4.20617096 0 0 Z " fill="#4B4B4B" transform="translate(940,419)"/>
<path d="M0 0 C4.67239145 2.13206212 8.59287819 4.02502456 12 8 C9.03 7.67 6.06 7.34 3 7 C3.33 5.68 3.66 4.36 4 3 C2.68 2.67 1.36 2.34 0 2 C0 1.34 0 0.68 0 0 Z " fill="#424242" transform="translate(1007,1001)"/>
<path d="M0 0 C0 3 0 6 0 9 C-1.175625 9.2165625 -1.175625 9.2165625 -2.375 9.4375 C-4.96421018 9.87798925 -4.96421018 9.87798925 -7 11 C-5.22054913 6.95579349 -2.60470327 3.53921513 0 0 Z " fill="#454545" transform="translate(808,623)"/>
<path d="M0 0 C0.33 0 0.66 0 1 0 C2.35686579 5.30411171 2.35686579 5.30411171 0.75 8.4375 C0.1725 9.283125 -0.405 10.12875 -1 11 C-2.07590713 13.30620451 -3.03065073 15.64586606 -4 18 C-5.68550367 14.62899267 -3.68863036 11.27985368 -2.5625 7.875 C-2.19801758 6.74384766 -2.19801758 6.74384766 -1.82617188 5.58984375 C-1.22404181 3.72442121 -0.61286537 1.86192317 0 0 Z " fill="#4D4D4D" transform="translate(1181,997)"/>
<path d="M0 0 C2.50037734 2.17424117 3.43628586 3.73045798 4 7 C2.68 7 1.36 7 0 7 C-0.99 7.66 -1.98 8.32 -3 9 C-2.67 7.35 -2.34 5.7 -2 4 C-1.34 4 -0.68 4 0 4 C0 2.68 0 1.36 0 0 Z " fill="#2F2F2F" transform="translate(686,1000)"/>
<path d="M0 0 C0.66 0.99 1.32 1.98 2 3 C0.42655961 6.14688078 -2.27851951 7.79965407 -5 10 C-5 6.60406522 -4.47834052 5.93380119 -2.5 3.3125 C-2.0359375 2.68988281 -1.571875 2.06726563 -1.09375 1.42578125 C-0.7328125 0.95527344 -0.371875 0.48476563 0 0 Z " fill="#3E3E3E" transform="translate(666,806)"/>
<path d="M0 0 C0 2.83967231 -0.40267181 5.23735711 -1 8 C-3.31 8.66 -5.62 9.32 -8 10 C-7.04367001 8.70684939 -6.08486149 7.41553147 -5.125 6.125 C-4.59132813 5.40570312 -4.05765625 4.68640625 -3.5078125 3.9453125 C-2 2 -2 2 0 0 Z " fill="#414141" transform="translate(681,788)"/>
<path d="M0 0 C0.66 0.33 1.32 0.66 2 1 C0.49776416 5.20626034 -2.28550034 6.73900021 -6 9 C-4.47291037 5.56404834 -2.40072955 2.88087546 0 0 Z " fill="#434343" transform="translate(734,723)"/>
<path d="M0 0 C0.99 0.33 1.98 0.66 3 1 C1.86500606 4.29148243 1.00716624 4.9959869 -2.125 6.75 C-3.548125 7.36875 -3.548125 7.36875 -5 8 C-3.62845496 5.04590299 -2.01136276 2.55991624 0 0 Z " fill="#3A3A3A" transform="translate(763,685)"/>
<path d="M0 0 C0.66 1.32 1.32 2.64 2 4 C-0.31 5.65 -2.62 7.3 -5 9 C-5 4.61031544 -2.87194899 3.23094261 0 0 Z " fill="#3C3C3C" transform="translate(1167,1031)"/>
<path d="M0 0 C0.66 1.32 1.32 2.64 2 4 C-0.40921705 6.40921705 -2.94334509 7.53812156 -6 9 C-4.47291037 5.56404834 -2.40072955 2.88087546 0 0 Z " fill="#3C3C3C" transform="translate(748,705)"/>
<path d="M0 0 C0.66 1.32 1.32 2.64 2 4 C0.625 5.5 0.625 5.5 -1 7 C-1.66 7 -2.32 7 -3 7 C-3 7.99 -3 8.98 -3 10 C-3.66 10 -4.32 10 -5 10 C-3.66511872 6.40608886 -2.03977277 3.24509304 0 0 Z " fill="#424242" transform="translate(962,382)"/>
<path d="M0 0 C5.94 1.485 5.94 1.485 12 3 C7.36533108 4.15866723 4.66739961 3.70010994 0 3 C0 2.01 0 1.02 0 0 Z " fill="#444444" transform="translate(756,1064)"/>
<path d="M0 0 C3.875 1.75 3.875 1.75 5 4 C2.33333333 4.66666667 -0.33333333 5.33333333 -3 6 C-3 5.34 -3 4.68 -3 4 C-2.34 4 -1.68 4 -1 4 C-0.67 2.68 -0.34 1.36 0 0 Z " fill="#232323" transform="translate(715,1038)"/>
<path d="M0 0 C0 3 0 3 -2.5 5.6875 C-3.325 6.450625 -4.15 7.21375 -5 8 C-5 7.01 -5 6.02 -5 5 C-5.66 4.67 -6.32 4.34 -7 4 C-4.83450189 1.83450189 -3.8751666 1.64923117 -1 1 C-0.67 0.67 -0.34 0.34 0 0 Z " fill="#454545" transform="translate(751,765)"/>
<path d="M0 0 C1.04449911 3.13349732 0.93423645 3.98968256 0 7 C-1.32 6.67 -2.64 6.34 -4 6 C-2.84826645 3.53199953 -1.95216435 1.95216435 0 0 Z " fill="#333333" transform="translate(702,763)"/>
<path d="M0 0 C0 3.39593478 -0.52165948 4.06619881 -2.5 6.6875 C-2.9640625 7.31011719 -3.428125 7.93273437 -3.90625 8.57421875 C-4.2671875 9.04472656 -4.628125 9.51523437 -5 10 C-5.66 8.68 -6.32 7.36 -7 6 C-5.68 5.67 -4.36 5.34 -3 5 C-3 4.01 -3 3.02 -3 2 C-2.01 1.34 -1.02 0.68 0 0 Z " fill="#4C4C4C" transform="translate(804,696)"/>
<path d="M0 0 C0.99 0.33 1.98 0.66 3 1 C3 1.66 3 2.32 3 3 C2.34 3 1.68 3 1 3 C1.33 3.99 1.66 4.98 2 6 C-1.16115776 4.63016497 -1.9927092 4.0109362 -4 1 C-2.68 1.33 -1.36 1.66 0 2 C0 1.34 0 0.68 0 0 Z " fill="#343434" transform="translate(700,1072)"/>
<path d="M0 0 C0.33 0.66 0.66 1.32 1 2 C0.67 2.99 0.34 3.98 0 5 C0.66 5 1.32 5 2 5 C2 5.66 2 6.32 2 7 C0.02 7.33 -1.96 7.66 -4 8 C-2.87548273 5.0280615 -1.77706209 2.66559313 0 0 Z " fill="#343434" transform="translate(902,481)"/>
<path d="M0 0 C0.66 1.32 1.32 2.64 2 4 C0.71034824 5.37562854 -0.62689293 6.70766393 -2 8 C-2.66 8 -3.32 8 -4 8 C-2.87548273 5.0280615 -1.77706209 2.66559313 0 0 Z " fill="#3B3B3B" transform="translate(912,465)"/>
<path d="M0 0 C0.66 0.33 1.32 0.66 2 1 C2 1.66 2 2.32 2 3 C-0.3125 4.6875 -0.3125 4.6875 -3 6 C-3.99 5.67 -4.98 5.34 -6 5 C-4.02 3.35 -2.04 1.7 0 0 Z " fill="#1F1F1F" transform="translate(1162,1039)"/>
<path d="M0 0 C1 3 1 3 0.22265625 5.04296875 C-0.16019531 5.75066406 -0.54304688 6.45835938 -0.9375 7.1875 C-1.31777344 7.90292969 -1.69804688 8.61835937 -2.08984375 9.35546875 C-2.54037109 10.16951172 -2.54037109 10.16951172 -3 11 C-4.11651815 7.65044556 -3.99822121 6.32740404 -3 3 C-1.4375 1.1875 -1.4375 1.1875 0 0 Z " fill="#474747" transform="translate(1211,1031)"/>
<path d="M0 0 C1.32 0 2.64 0 4 0 C2.8141763 3.37503669 1.72426311 5.64722731 -1 8 C-1.08226668 4.95613276 -0.97608217 2.92824652 0 0 Z " fill="#434343" transform="translate(839,643)"/>
<path d="M0 0 C1 2 1 2 0.3125 4.5 C-1.15567038 7.29651501 -2.09303901 7.93411431 -5 9 C-3.7508258 5.54074837 -2.32472205 2.85306797 0 0 Z " fill="#4A4A4A" transform="translate(872,528)"/>
<path d="M0 0 C7.50769231 -0.36923077 7.50769231 -0.36923077 10 1.5 C10.495 2.2425 10.495 2.2425 11 3 C9.741875 2.87625 8.48375 2.7525 7.1875 2.625 C6.12595703 2.52058594 6.12595703 2.52058594 5.04296875 2.4140625 C3 2 3 2 0 0 Z " fill="#4D4D4D" transform="translate(792,1115)"/>
<path d="M0 0 C0.66 0.33 1.32 0.66 2 1 C0.68 2.65 -0.64 4.3 -2 6 C-3.32 5.67 -4.64 5.34 -6 5 C-4.02 3.35 -2.04 1.7 0 0 Z " fill="#484848" transform="translate(1154,1045)"/>
<path d="M0 0 C0.33 0 0.66 0 1 0 C3 6.625 3 6.625 3 10 C-2 4.25 -2 4.25 -2 2 C-1.34 2 -0.68 2 0 2 C0 1.34 0 0.68 0 0 Z " fill="#494949" transform="translate(666,1037)"/>
<path d="M0 0 C-0.33 0.66 -0.66 1.32 -1 2 C-0.34 2 0.32 2 1 2 C1 2.66 1 3.32 1 4 C-4.75 2.25 -4.75 2.25 -7 0 C-2.25 -1.125 -2.25 -1.125 0 0 Z " fill="#464646" transform="translate(977,1026)"/>
<path d="M0 0 C1.37562854 1.28965176 2.70766393 2.62689293 4 4 C4 4.66 4 5.32 4 6 C3.01 6 2.02 6 1 6 C1 6.66 1 7.32 1 8 C0.34 8 -0.32 8 -1 8 C-1 7.01 -1 6.02 -1 5 C-0.34 5 0.32 5 1 5 C0.67 3.35 0.34 1.7 0 0 Z " fill="#323232" transform="translate(1189,873)"/>
<path d="M0 0 C0.66 0.33 1.32 0.66 2 1 C2.99 0.67 3.98 0.34 5 0 C5 0.66 5 1.32 5 2 C3.68 2.33 2.36 2.66 1 3 C0.67 4.32 0.34 5.64 0 7 C-0.38133299 5.0085944 -0.71325582 3.00720923 -1 1 C-0.67 0.67 -0.34 0.34 0 0 Z " fill="#1D1D1D" transform="translate(798,637)"/>
<path d="M0 0 C0.33 0 0.66 0 1 0 C1 1.98 1 3.96 1 6 C-0.65 6.66 -2.3 7.32 -4 8 C-2.87548273 5.0280615 -1.77706209 2.66559313 0 0 Z " fill="#3C3C3C" transform="translate(920,452)"/>
<path d="M0 0 C0.66 0.99 1.32 1.98 2 3 C1.67 3.66 1.34 4.32 1 5 C0.01 5 -0.98 5 -2 5 C-2 5.99 -2 6.98 -2 8 C-2.66 8 -3.32 8 -4 8 C-2.87548273 5.0280615 -1.77706209 2.66559313 0 0 Z " fill="#414141" transform="translate(928,439)"/>
<path d="M0 0 C5.875 3.75 5.875 3.75 7 6 C4.0625 5.25 4.0625 5.25 1 4 C0.125 1.875 0.125 1.875 0 0 Z " fill="#383838" transform="translate(1043,1027)"/>
<path d="M0 0 C0.99 0.33 1.98 0.66 3 1 C2.67 1.99 2.34 2.98 2 4 C-0.5625 5.1875 -0.5625 5.1875 -3 6 C-2.625 3.5625 -2.625 3.5625 -2 1 C-1.34 0.67 -0.68 0.34 0 0 Z " fill="#2C2C2C" transform="translate(641,853)"/>
<path d="M0 0 C0.66 0.99 1.32 1.98 2 3 C0.35 4.65 -1.3 6.3 -3 8 C-3 4.42424104 -1.91159393 2.94704065 0 0 Z " fill="#404040" transform="translate(657,819)"/>
<path d="M0 0 C0.66 0.99 1.32 1.98 2 3 C0.35 4.32 -1.3 5.64 -3 7 C-3 3.48283697 -2.17554415 2.62878252 0 0 Z " fill="#444444" transform="translate(815,613)"/>
<path d="M0 0 C0.66 0.99 1.32 1.98 2 3 C0.02 3.99 0.02 3.99 -2 5 C-2 5.99 -2 6.98 -2 8 C-2.66 8 -3.32 8 -4 8 C-2.87548273 5.0280615 -1.77706209 2.66559313 0 0 Z " fill="#414141" transform="translate(883,511)"/>
</svg>
