<?xml version="1.0" encoding="UTF-8"?>
<svg version="1.1" xmlns="http://www.w3.org/2000/svg" width="1851" height="1407">
<path d="M0 0 C6.82873724 3.10397147 10.20686297 13.40128603 13.51171875 19.69921875 C17.36029897 26.96014214 21.45445138 34.04504474 25.625 41.125 C31.38239319 50.90584593 36.82593924 60.82474529 42.15356445 70.84521484 C45.21892022 76.58901576 48.36766018 82.2262972 51.8125 87.75 C55.42182071 93.65677909 58.58716583 99.71765781 61.625 105.9375 C62.0674707 106.82284424 62.50994141 107.70818848 62.96582031 108.62036133 C65.37870804 113.67444786 66.60341285 117.33029072 66.0625 122.9375 C64.62583984 123.64712891 64.62583984 123.64712891 63.16015625 124.37109375 C55.81565458 128.01443657 48.53108109 131.73769377 41.3125 135.625 C35.55836287 138.71565577 29.78203102 141.41200274 23.703125 143.8203125 C20.34865774 145.23951019 17.27082786 147.00902722 14.12109375 148.828125 C11.63818677 150.16616216 9.05150253 151.07499024 6.39453125 152.0078125 C2.73141655 153.46814968 -0.73155788 155.3159384 -4.2409668 157.10888672 C-8.74031901 159.38672454 -13.30269619 161.45147537 -17.9375 163.4375 C-24.20370215 166.12601914 -30.28119126 169.0850871 -36.359375 172.1796875 C-40.92392154 174.42209573 -45.57052554 176.43547044 -50.24023438 178.4465332 C-56.30183352 181.06694292 -62.17772425 183.98772782 -68.0390625 187.02734375 C-71.79495142 188.94879272 -75.51665217 190.53443921 -79.4921875 191.96875 C-82.76456613 193.26515559 -85.94108001 194.75293567 -89.125 196.25 C-90.0984436 196.70765747 -90.0984436 196.70765747 -91.09155273 197.17456055 C-94.17648544 198.62873887 -97.25823102 200.08958026 -100.33984375 201.55078125 C-106.75076599 204.55808659 -113.20258563 207.23953033 -119.83203125 209.7265625 C-122.69805826 210.84413278 -125.46617389 212.06839103 -128.25 213.375 C-132.48869953 215.33926552 -136.78523754 217.08149253 -141.16015625 218.71484375 C-141.85225189 218.97357269 -142.54434753 219.23230164 -143.25741577 219.49887085 C-150.70361254 222.25738826 -158.21954174 224.79896574 -165.75634766 227.29736328 C-168.06955831 228.06484181 -170.38054402 228.83876417 -172.69140625 229.61328125 C-184.64490035 233.60217721 -196.64175853 237.45598743 -209 240 C-209.78455566 240.1642749 -210.56911133 240.3285498 -211.37744141 240.49780273 C-218.37816493 241.91657005 -225.41988943 242.91248135 -232.49755859 243.85913086 C-238.48935541 244.67639803 -244.29232559 245.86796751 -250.16796875 247.30859375 C-258.41565506 249.18148161 -270.17420364 251.0414023 -278.1953125 248.11328125 C-279.9375 246.9375 -279.9375 246.9375 -281.9375 243.9375 C-283.66826443 228.23986916 -279.42724286 212.59049049 -269.9375 199.9375 C-269.2775 199.9375 -268.6175 199.9375 -267.9375 199.9375 C-267.9375 199.2775 -267.9375 198.6175 -267.9375 197.9375 C-267.2775 197.9375 -266.6175 197.9375 -265.9375 197.9375 C-265.9375 197.2775 -265.9375 196.6175 -265.9375 195.9375 C-265.2775 195.9375 -264.6175 195.9375 -263.9375 195.9375 C-263.9375 195.2775 -263.9375 194.6175 -263.9375 193.9375 C-263.2775 193.9375 -262.6175 193.9375 -261.9375 193.9375 C-261.9375 193.2775 -261.9375 192.6175 -261.9375 191.9375 C-259.48912192 190.21312084 -257.05203525 188.61994224 -254.5 187.0625 C-253.76587891 186.61068359 -253.03175781 186.15886719 -252.27539062 185.69335938 C-242.15822731 179.54792065 -232.90418438 175.83858891 -220.9375 175.5625 C-210.68522369 175.13057329 -198.72162389 174.17987168 -190.9375 166.9375 C-189.32598162 164.6667241 -188.9375 163.46535028 -188.9375 160.6875 C-190.45693494 156.50905392 -193.16222755 153.36921863 -195.9375 149.9375 C-196.83662109 148.7309375 -196.83662109 148.7309375 -197.75390625 147.5 C-200.25005899 144.57070448 -203.0229872 142.265176 -206.0625 139.9375 C-206.96633423 139.23681396 -206.96633423 139.23681396 -207.88842773 138.52197266 C-221.2215007 128.26680168 -234.97982084 118.42072772 -249.0703125 109.234375 C-249.76552002 108.77893311 -250.46072754 108.32349121 -251.17700195 107.85424805 C-252.53594591 106.96647722 -253.89895236 106.08488736 -255.26635742 105.21020508 C-256.85809753 104.17057681 -258.40317007 103.06012868 -259.9375 101.9375 C-259.9375 101.2775 -259.9375 100.6175 -259.9375 99.9375 C-260.66324219 99.669375 -261.38898438 99.40125 -262.13671875 99.125 C-264.90614024 97.95079619 -267.24669434 96.5980676 -269.75 94.9375 C-270.54019531 94.421875 -271.33039063 93.90625 -272.14453125 93.375 C-272.73621094 92.900625 -273.32789063 92.42625 -273.9375 91.9375 C-273.9375 91.2775 -273.9375 90.6175 -273.9375 89.9375 C-274.50600394 89.68114336 -275.07450788 89.42478672 -275.66023922 89.1606617 C-278.17333128 87.81083037 -280.15794515 86.16051654 -282.37367249 84.36691284 C-288.47545936 80.07393833 -293.66770601 79.95899795 -300.95874023 80.06689453 C-302.22334579 80.05772507 -303.48795135 80.0485556 -304.7908783 80.03910828 C-308.22888543 80.01483053 -311.66548127 80.0328801 -315.10342669 80.05874491 C-318.71088737 80.07822046 -322.31811134 80.05712421 -325.92555237 80.04025269 C-332.74647633 80.01425226 -339.56688081 80.02270864 -346.38780218 80.04452598 C-356.41228165 80.07492332 -366.43666586 80.05081944 -376.46114445 80.02952385 C-377.94057268 80.02647748 -379.42000097 80.0234617 -380.89942932 80.02047729 C-381.62154337 80.01897639 -382.34365741 80.01747549 -383.0876537 80.0159291 C-387.37870257 80.00814232 -391.66962885 80.00951814 -395.96067321 80.01925969 C-397.98279736 80.02360313 -400.00492601 80.02566306 -402.02705383 80.02766418 C-404.49316144 80.03031168 -406.95926893 80.03675156 -409.425354 80.04762268 C-410.50886642 80.04794998 -411.59237885 80.04827728 -412.70872498 80.0486145 C-414.12309168 80.05257327 -414.12309168 80.05257327 -415.56603146 80.05661201 C-417.9375 79.9375 -417.9375 79.9375 -420.9375 78.9375 C-422.33472242 78.76085956 -423.73685772 78.62125756 -425.140625 78.5078125 C-425.95660156 78.43433594 -426.77257812 78.36085938 -427.61328125 78.28515625 C-429.31325949 78.13811716 -431.01379481 77.99736702 -432.71484375 77.86328125 C-439.41458387 77.24274017 -444.27242469 75.71421687 -449.9375 71.9375 C-449.9375 71.2775 -449.9375 70.6175 -449.9375 69.9375 C-450.5975 69.9375 -451.2575 69.9375 -451.9375 69.9375 C-453.41987286 67.33511208 -454.89850131 64.73071772 -456.375 62.125 C-456.79587891 61.38701172 -457.21675781 60.64902344 -457.65039062 59.88867188 C-458.05322266 59.17646484 -458.45605469 58.46425781 -458.87109375 57.73046875 C-459.24290771 57.0758667 -459.61472168 56.42126465 -459.99780273 55.74682617 C-462.88201256 50.19346711 -462.9905659 43.39679419 -461.18359375 37.4609375 C-460.20019212 35.2164679 -459.12112437 33.08256669 -457.9375 30.9375 C-457.59074219 30.26332031 -457.24398437 29.58914063 -456.88671875 28.89453125 C-455.17376619 25.68687877 -454.01134765 23.98673177 -450.9375 21.9375 C-448.74626793 21.34885282 -446.53385015 20.83717634 -444.3125 20.375 C-443.14460937 20.12621094 -441.97671875 19.87742187 -440.7734375 19.62109375 C-432.985108 18.23315316 -425.376567 17.78733325 -417.47265625 17.8046875 C-416.48164413 17.80373077 -415.49063202 17.80277405 -414.46958923 17.80178833 C-412.37271054 17.80111064 -410.27582969 17.80293612 -408.17895508 17.80712891 C-405.0678191 17.81238541 -401.95683408 17.80722098 -398.84570312 17.80078125 C-387.20725723 17.79686215 -375.60624349 18.05678299 -363.97865295 18.55184937 C-355.74686243 18.89334629 -347.51901738 19.09068099 -339.28125 19.21875 C-338.06018051 19.23777374 -336.83911102 19.25679749 -335.58103943 19.27639771 C-330.59297702 19.35135546 -325.6048582 19.4215374 -320.61669922 19.48974609 C-316.90065397 19.5416821 -313.18471243 19.59873282 -309.46875 19.65625 C-307.79830627 19.67661316 -307.79830627 19.67661316 -306.09411621 19.6973877 C-300.38574761 19.78771343 -294.7776985 20.08069346 -289.10327148 20.70913696 C-286.34505636 20.99996838 -283.60010759 21.11293817 -280.828125 21.18359375 C-279.21744141 21.2307251 -279.21744141 21.2307251 -277.57421875 21.27880859 C-275.89779297 21.32642334 -275.89779297 21.32642334 -274.1875 21.375 C-239.30429088 22.54766551 -239.30429088 22.54766551 -226.9375 26.9375 C-225.9475 27.2675 -224.9575 27.5975 -223.9375 27.9375 C-223.9375 28.5975 -223.9375 29.2575 -223.9375 29.9375 C-223.2775 29.9375 -222.6175 29.9375 -221.9375 29.9375 C-221.94652344 31.16984375 -221.95554687 32.4021875 -221.96484375 33.671875 C-221.85402918 44.2045872 -221.17619123 52.63948811 -213.9375 60.9375 C-211.13760029 63.47862895 -208.31660321 65.25906387 -204.9375 66.9375 C-204.15375 67.34742188 -203.37 67.75734375 -202.5625 68.1796875 C-193.32538235 72.47257872 -184.75417099 71.74619967 -175.296875 68.62890625 C-168.95759009 66.7712019 -164.33319251 67.42305382 -158.4375 70.375 C-151.10104293 74.71719479 -144.81286733 80.94240775 -139.9375 87.9375 C-139.9375 88.5975 -139.9375 89.2575 -139.9375 89.9375 C-139.23625 90.205625 -138.535 90.47375 -137.8125 90.75 C-134.9375 91.9375 -134.9375 91.9375 -132.3125 93.5625 C-126.71346646 95.84358774 -121.1050113 96.06394019 -115.3671875 94.0234375 C-110.52831845 91.54810845 -107.19371391 89.0139813 -104.9375 83.9375 C-103.71263385 77.97770352 -103.6893989 73.03920368 -105.4375 67.17578125 C-106.56044878 62.14883087 -106.58193372 57.03191815 -105.9375 51.9375 C-102.83525162 47.09023691 -98.33711797 45.42129746 -92.9375 43.9375 C-90.95897091 43.53849205 -88.97973498 43.1429811 -87 42.75 C-68.99163288 38.72972011 -51.97155716 27.38335276 -35.9453125 18.56640625 C-30.96500409 15.86927819 -25.9436221 13.24972365 -20.92382812 10.62695312 C-0.599113 -0.01932623 -0.599113 -0.01932623 0 0 Z " fill="#030303" transform="translate(1059.9375,689.0625)"/>
<path d="M0 0 C0.103125 0.99 0.20625 1.98 0.3125 3 C0.79720252 6.39291767 1.85534781 9.34039446 3.11328125 12.53125 C6.33479271 21.50039204 8.2660861 30.8543833 9.92138672 40.2175293 C10.65171396 44.30746205 11.55182894 48.29977342 12.625 52.3125 C14.35527408 58.98771526 16.0625386 66.24987369 14 73 C6.25 74.125 6.25 74.125 4 73 C4 72.34 4 71.68 4 71 C-8.02394635 73.21670519 -20.01856538 75.56420107 -32 78 C-32.79841309 78.16113281 -33.59682617 78.32226562 -34.41943359 78.48828125 C-45.16138355 80.66274715 -55.7969278 83.13219041 -66.4140625 85.8515625 C-72.69634156 87.43997214 -78.96020942 88.85512163 -85.359375 89.890625 C-94.02976674 91.30004352 -102.63657176 93.03167192 -111.25 94.75 C-112.57310684 95.01311981 -112.57310684 95.01311981 -113.92294312 95.28155518 C-125.53864232 97.59903492 -137.07857756 100.05578739 -148.53027344 103.09667969 C-163.64421374 107.10508406 -179.85319301 110.32190609 -194.38671875 102.7578125 C-198.25856457 100.47389646 -198.25856457 100.47389646 -200 99 C-200 98.34 -200 97.68 -200 97 C-200.66 97 -201.32 97 -202 97 C-203.4375 95.0234375 -203.4375 95.0234375 -205 92.375 C-205.515625 91.51648438 -206.03125 90.65796875 -206.5625 89.7734375 C-210.41731343 82.3361616 -210.99304322 75.26071348 -210 67 C-207.07073165 58.20177049 -201.74250349 49.44192131 -193.43359375 44.93359375 C-188.60567381 42.63157591 -183.66087538 41.59277625 -178.4375 40.5625 C-176.38274434 40.13704782 -174.32805874 39.71125713 -172.2734375 39.28515625 C-171.23026367 39.07262207 -170.18708984 38.86008789 -169.11230469 38.64111328 C-164.25227075 37.63997984 -159.40849529 36.56662071 -154.5625 35.5 C-148.68910779 34.21560326 -142.81223512 32.95441868 -136.921875 31.75 C-126.55901415 29.63094425 -116.27548887 27.3798406 -106.0324707 24.73876953 C-99.59265159 23.0969781 -93.13459081 21.84395716 -86.59375 20.6796875 C-82.38180759 19.883081 -78.27077374 18.83150619 -74.125 17.75 C-69.75455239 16.70109257 -65.34103164 15.92199561 -60.91967773 15.125 C-56.92017172 14.39287734 -52.99375181 13.53539142 -49.0625 12.5 C-43.52078922 11.05236943 -37.94919558 10.07921613 -32.30615234 9.1315918 C-26.92849491 8.21142566 -21.68122395 6.99836202 -16.41796875 5.55078125 C-14 5 -14 5 -10 5 C-9.67 3.35 -9.34 1.7 -9 0 C-5.67465243 -1.10844919 -3.37817425 -0.84454356 0 0 Z M-20.67553711 19.41772461 C-21.81402351 19.64475571 -21.81402351 19.64475571 -22.97550964 19.87637329 C-25.49381647 20.38005051 -28.01060012 20.89091694 -30.52734375 21.40234375 C-32.31241617 21.76216664 -34.0975378 22.12174542 -35.88270569 22.48109436 C-39.64862678 23.24040412 -43.41378151 24.00338633 -47.1784668 24.76879883 C-50.95774211 25.53686957 -54.73794211 26.30004611 -58.51928711 27.05786133 C-79.928457 31.34850367 -101.25897374 35.84422432 -122.47776794 41.00254822 C-134.08659059 43.8231877 -145.73482826 46.28758657 -157.47314453 48.51806641 C-176.78920168 51.30169545 -176.78920168 51.30169545 -193 61 C-195.2773501 63.81509993 -195.2773501 63.81509993 -195 67 C-174.57208905 67.07016879 -154.14420265 67.1230267 -133.71619606 67.15543652 C-124.23051544 67.17088682 -114.74490982 67.19194116 -105.25927734 67.22631836 C-96.98888166 67.25627702 -88.71854031 67.27558835 -80.44809186 67.28226548 C-76.07141158 67.2861668 -71.69488672 67.29529699 -67.31825638 67.31719017 C-63.19294839 67.33765762 -59.06785883 67.34381321 -54.94250488 67.33932304 C-53.43411443 67.34014368 -51.92571615 67.34604801 -50.41736984 67.35761642 C-42.99075746 67.41174839 -36.13354817 67.27596083 -29.06531334 64.73010731 C-25.61412092 63.51007897 -22.04219338 63.01130833 -18.4375 62.4375 C-16.96849672 62.19161255 -15.49974305 61.94422902 -14.03125 61.6953125 C-13.33902344 61.57833008 -12.64679688 61.46134766 -11.93359375 61.34082031 C-8.25689537 60.6927558 -4.63228728 59.85854063 -1 59 C-0.00121636 55.13212696 -0.08856939 52.32963337 -0.890625 48.4296875 C-1.10589844 47.3675 -1.32117188 46.3053125 -1.54296875 45.2109375 C-1.77628906 44.11007812 -2.00960937 43.00921875 -2.25 41.875 C-2.46785156 40.79734375 -2.68570313 39.7196875 -2.91015625 38.609375 C-4.34212219 31.65889704 -6.04608874 24.82163956 -8 18 C-12.36568419 17.80852465 -16.4213246 18.54725175 -20.67553711 19.41772461 Z " fill="#070707" transform="translate(854,416)"/>
<path d="M0 0 C1.42759644 -0.00591408 1.42759644 -0.00591408 2.8840332 -0.01194763 C6.03365552 -0.01866558 9.18183126 0.01053276 12.33129883 0.04077148 C14.52362283 0.04502267 16.71595134 0.04735028 18.90827942 0.0478363 C23.50758208 0.05400679 28.10639874 0.07672371 32.70556641 0.11230469 C38.58544085 0.15744398 44.4648732 0.17232365 50.3449049 0.1760416 C54.87553731 0.18048465 59.40607792 0.19581614 63.9366703 0.21491814 C66.10348064 0.22376751 68.27030066 0.23051333 70.43712425 0.23507881 C73.47647651 0.2441831 76.51544159 0.266631 79.5546875 0.29296875 C80.88530968 0.29396576 80.88530968 0.29396576 82.24281311 0.29498291 C87.96104966 0.36292079 93.05391043 1.19426858 98.60083008 2.59936523 C98.60083008 3.25936523 98.60083008 3.91936523 98.60083008 4.59936523 C99.30208008 4.82624023 100.00333008 5.05311523 100.72583008 5.28686523 C103.23170033 6.43084948 104.6888034 7.39983716 106.72583008 9.16186523 C109.40687204 11.74154287 109.40687204 11.74154287 112.60083008 12.59936523 C112.27083008 13.91936523 111.94083008 15.23936523 111.60083008 16.59936523 C108.53885964 17.37231208 105.4762253 18.14259135 102.41333008 18.91186523 C101.49293945 19.14333252 100.57254883 19.3747998 99.62426758 19.61328125 C94.79556218 20.82172742 89.96508423 21.97858714 85.10083008 23.03686523 C79.67989614 24.26072404 74.40827309 25.84044337 69.10083008 27.47436523 C61.2422953 29.89180164 53.35286916 31.92438372 45.34179688 33.76806641 C39.48441228 35.12415031 33.69594638 36.64215093 27.91333008 38.28686523 C25.14393048 39.062927 22.37302283 39.83334511 19.60083008 40.59936523 C18.6959082 40.84944336 17.79098633 41.09952148 16.85864258 41.35717773 C8.94861455 43.2481272 -2.36433992 44.84222345 -9.94213867 41.46655273 C-13.91597941 38.22986369 -16.90301191 33.80030697 -17.70092773 28.65258789 C-17.83756235 26.50033972 -17.86623469 24.38068559 -17.83666992 22.22436523 C-17.83054687 21.46994141 -17.82442383 20.71551758 -17.81811523 19.93823242 C-17.65567865 14.17298337 -16.73460727 10.41721918 -13.39916992 5.59936523 C-12.88662155 4.71969589 -12.37407318 3.84002655 -11.84599304 2.93370056 C-8.17375315 -0.56971546 -4.90245249 -0.08105683 0 0 Z " fill="#070707" transform="translate(679.399169921875,774.400634765625)"/>
<path d="M0 0 C5.13177877 5.01514744 6.93461643 10.09451922 8.3671875 17.0859375 C8.61106201 18.25680908 8.85493652 19.42768066 9.10620117 20.6340332 C9.35990479 21.86855225 9.6136084 23.10307129 9.875 24.375 C11.72596687 33.2207622 13.68790051 41.95768014 16.125 50.66015625 C17.44902501 55.71391243 18.41769273 60.8210766 19.38671875 65.953125 C19.94019403 69.02526828 19.94019403 69.02526828 21 72 C21.50179253 77.24003023 21.649025 81.62706251 19.375 86.4375 C14.69257155 91.48959385 9.40829056 94.70611604 2.51171875 95.30078125 C-6.07014591 95.3270791 -12.40173881 94.96332388 -19.8125 90.1875 C-23.31771197 86.68228803 -24.92088842 83.67518778 -25.15625 78.69140625 C-25.00762975 75.18025279 -24.50623789 72.15930857 -23.6875 68.75 C-22.38939625 63.02127921 -21.37475157 57.30770072 -20.5 51.5 C-19.45943013 44.64207104 -18.20310603 37.90181651 -16.6796875 31.1328125 C-16.04793648 28.2209486 -15.53999539 25.31536636 -15.0625 22.375 C-13.78550388 15.13153463 -11.73062562 7.39744003 -8 1 C-5.074084 -0.462958 -3.24382653 -0.44523109 0 0 Z " fill="#070707" transform="translate(883,508)"/>
<path d="M0 0 C1.90948481 1.34144585 3.57670255 2.8213317 5.28515625 4.41015625 C7.13505067 6.18223068 7.13505067 6.18223068 9.9375 8.1875 C10.618125 8.785625 11.29875 9.38375 12 10 C12 10.99 12 11.98 12 13 C10.47802734 14.28344727 10.47802734 14.28344727 8.3359375 15.56640625 C7.55065674 16.0466626 6.76537598 16.52691895 5.95629883 17.02172852 C5.10447021 17.53018311 4.2526416 18.0386377 3.375 18.5625 C-2.60885692 22.23235451 -8.51325282 25.92703172 -14.1875 30.0625 C-19.75065096 34.11633826 -25.39986734 38.01931497 -31.09912109 41.87939453 C-34.92025914 44.49209883 -38.58636871 47.21780753 -42.18579102 50.12744141 C-50.3797319 56.72637383 -58.56647123 60.99832897 -69.359375 60.58203125 C-74.27643331 59.49824177 -77.50638443 56.47958499 -81 53 C-81.53882813 52.46375 -82.07765625 51.9275 -82.6328125 51.375 C-85.36811151 48.37398622 -86.71838394 46.03649681 -87 42 C-87.05027344 41.29488281 -87.10054687 40.58976563 -87.15234375 39.86328125 C-87.35198663 35.03192349 -87.21839694 31.84131248 -84 28 C-78.95317346 22.74266507 -74.18774828 20.70468351 -67.1875 19 C-65.30897381 18.50478653 -63.43137993 18.0060243 -61.5546875 17.50390625 C-60.61979492 17.25656738 -59.68490234 17.00922852 -58.72167969 16.75439453 C-54.6963981 15.63866793 -50.75892643 14.30229122 -46.8125 12.9375 C-40.0781202 10.63245385 -33.30102313 8.62841955 -26.43286133 6.76245117 C-0.98147622 -0.15267408 -0.98147622 -0.15267408 0 0 Z " fill="#060606" transform="translate(802,795)"/>
<path d="M0 0 C1.29673602 2.53919006 2.58747837 5.08114238 3.875 7.625 C4.23980469 8.33785156 4.60460937 9.05070313 4.98046875 9.78515625 C8.2612455 16.28705927 10.20691731 22.49844286 11.4375 29.6875 C12.43703245 35.28118447 13.67268119 40.69704683 15.25 46.16015625 C16.4855242 50.83841715 17.32593528 55.59375827 18.23828125 60.34375 C18.92109402 63.62125131 19.74793621 66.78872094 20.6875 70 C23.23339468 79.2169556 23.23339468 79.2169556 21.0859375 84.0625 C18.21715332 89.09675353 14.80602121 92.83853813 9.07592773 94.5871582 C5.42703613 95.31281688 1.77096741 95.18452131 -1.9375 95.1875 C-2.73607422 95.19974609 -3.53464844 95.21199219 -4.35742188 95.22460938 C-9.89879281 95.23838246 -13.71467785 94.74290712 -18.23828125 91.29296875 C-22.48431686 86.98296274 -24.55323133 83.90398065 -24.6875 77.75 C-24.32628459 72.17696228 -23.23968611 66.90430355 -21.85546875 61.50390625 C-20.89865951 57.58492044 -20.1782627 53.66223626 -19.5 49.6875 C-19.25012086 48.23435421 -19.00012051 46.78122926 -18.75 45.328125 C-18.564375 44.24821289 -18.564375 44.24821289 -18.375 43.14648438 C-17.66429657 39.07844756 -16.90289216 35.01975393 -16.1184082 30.96533203 C-15.46426979 27.5698621 -14.86500774 24.17822016 -14.35546875 20.7578125 C-11.00913563 -0.85984881 -11.00913563 -0.85984881 0 0 Z " fill="#070707" transform="translate(880,641)"/>
<path d="M0 0 C-1.20949063 2.85879604 -2.46220611 4.49522083 -4.625 6.8125 C-8.22454661 11.64347046 -7.22995757 15.18908413 -6.5 20.9375 C-6.335 21.948125 -6.17 22.95875 -6 24 C-6.66 23.67 -7.32 23.34 -8 23 C-9.66333911 17.67731484 -10.02461603 11.30538606 -7.75 6.1875 C-2.8 0 -2.8 0 0 0 Z " fill="#3A3A3A" transform="translate(724,819)"/>
<path d="M0 0 C2 1 2 1 3.125 3.6875 C3.98889074 6.9579435 4.16013991 9.63706182 4 13 C3.34 13 2.68 13 2 13 C1.34 8.71 0.68 4.42 0 0 Z " fill="#393939" transform="translate(955,754)"/>
<path d="M0 0 C-1.49097658 3.7952131 -3.75700849 5.61042731 -7 8 C-6.44414399 4.1090079 -4.34122117 0 0 0 Z " fill="#252525" transform="translate(724,819)"/>
</svg>
